<?xml version="1.0" encoding="UTF-8" standalone="no"?>
<!-- Created with Inkscape (http://www.inkscape.org/) -->

<svg
   xmlns:dc="http://purl.org/dc/elements/1.1/"
   xmlns:cc="http://creativecommons.org/ns#"
   xmlns:rdf="http://www.w3.org/1999/02/22-rdf-syntax-ns#"
   xmlns:svg="http://www.w3.org/2000/svg"
   xmlns="http://www.w3.org/2000/svg"
   xmlns:sodipodi="http://sodipodi.sourceforge.net/DTD/sodipodi-0.dtd"
   xmlns:inkscape="http://www.inkscape.org/namespaces/inkscape"
   width="303.31"
   height="191.26772"
   id="svg2"
   version="1.1"
   inkscape:version="0.48.2 r9819"
   sodipodi:docname="lovedemands...svg">
  <defs
     id="defs4">
    <inkscape:perspective
       sodipodi:type="inkscape:persp3d"
       inkscape:vp_x="0 : 526.18109 : 1"
       inkscape:vp_y="0 : 1000 : 0"
       inkscape:vp_z="744.09448 : 526.18109 : 1"
       inkscape:persp3d-origin="372.04724 : 350.78739 : 1"
       id="perspective4863" />
  </defs>
  <sodipodi:namedview
     id="base"
     pagecolor="#ffffff"
     bordercolor="#666666"
     borderopacity="1.0"
     inkscape:pageopacity="0.0"
     inkscape:pageshadow="2"
     inkscape:zoom="1.979899"
     inkscape:cx="151.75412"
     inkscape:cy="94.263849"
     inkscape:document-units="px"
     inkscape:current-layer="layer1"
     showgrid="false"
     inkscape:window-width="1024"
     inkscape:window-height="743"
     inkscape:window-x="0"
     inkscape:window-y="24"
     inkscape:window-maximized="1"
     width="303.31px"
     inkscape:showpageshadow="false" />
  <metadata
     id="metadata7">
    <rdf:RDF>
      <cc:Work
         rdf:about="">
        <dc:format>image/svg+xml</dc:format>
        <dc:type
           rdf:resource="http://purl.org/dc/dcmitype/StillImage" />
        <dc:title></dc:title>
      </cc:Work>
    </rdf:RDF>
  </metadata>
  <g
     inkscape:label="Layer 1"
     inkscape:groupmode="layer"
     id="layer1"
     transform="translate(0,-861.09447)">
    <path
       style="fill:#0000ff;fill-opacity:1"
       id="path5243"
       d="m 22.659232,882.86502 c 0.02203,-0.83434 0.195772,-1.65346 0.368792,-2.46598 0.361231,-1.80481 1.351927,-3.31923 2.380265,-4.79573 2.212547,-2.77536 4.791403,-5.4975 7.795346,-7.38711 1.688452,-1.06211 3.436147,-2.02312 5.15422,-3.03468 3.301093,-1.59718 6.832349,-2.57511 10.486007,-2.76693 1.995577,-0.10478 2.59846,0.006 4.524285,0.16566 1.509768,0.27219 3.140295,0.60337 4.041874,2.02922 0.974038,1.54043 0.699087,3.40827 0.562072,5.10898 -0.17415,0.79946 -0.309959,1.60862 -0.522453,2.39839 -0.518036,1.92539 -1.325943,4.10918 -2.069413,5.935 -1.56124,3.83408 -3.4148,7.5342 -5.223363,11.25015 -3.628191,7.57967 -7.483918,15.04214 -11.213184,22.56971 -1.78388,3.45307 -3.322588,7.02246 -4.831968,10.60515 -0.228776,0.33845 -0.2471,0.79816 -0.419028,1.16055 -0.04707,0.0992 0.05564,-0.37445 -0.04229,-0.32776 -1.10425,0.52645 -2.129973,1.20935 -3.19496,1.81402 0.84964,-0.61542 1.533503,-1.42532 2.354994,-2.07687 0.284046,-0.22529 0.582989,-0.43035 0.874483,-0.64553 2.722292,-1.79025 5.501716,-3.5562 8.599166,-4.58337 1.76605,-0.58566 2.273404,-0.62242 4.139411,-0.99206 4.575566,-0.70494 9.266573,-0.67712 13.836361,0.0829 0.984183,0.16367 1.955534,0.39932 2.9333,0.59898 3.715566,0.96473 7.26512,2.53137 10.33889,4.89095 1.79988,1.38168 2.31198,2.03003 3.88708,3.65751 2.41671,2.75666 4.59436,5.74675 7.38741,8.13697 2.09279,1.79096 2.37567,1.81479 4.76381,3.2267 2.68344,1.11129 3.36249,1.53235 6.28757,2.14049 6.309861,1.31186 12.821811,0.93229 19.201221,0.62907 9.61361,-0.60978 19.18019,-1.78588 28.73123,-3.0273 0,0 -2.09739,1.59327 -2.09739,1.59327 l 0,0 c -9.53983,1.13955 -19.08741,2.252 -28.66936,2.95773 -6.46745,0.37107 -13.282481,0.85587 -19.697501,-0.37814 -2.99498,-0.57612 -3.71186,-1.01406 -6.45769,-2.12654 -2.43479,-1.4228 -2.72432,-1.44232 -4.84938,-3.25964 -2.79814,-2.39295 -4.97381,-5.39631 -7.42208,-8.13222 -1.5266,-1.57047 -2.1008,-2.27189 -3.83502,-3.61317 -3.028337,-2.34218 -6.527129,-3.89765 -10.206668,-4.82123 -0.973784,-0.19279 -1.94128,-0.42213 -2.921347,-0.57838 -4.607669,-0.73458 -9.331471,-0.69119 -13.924107,0.11885 -0.743141,0.16515 -1.493113,0.3011 -2.229422,0.49546 -1.328029,0.35054 -2.445721,0.75835 -3.696195,1.31681 -0.509365,0.22748 -1.901983,1.13373 -1.502229,0.73969 0.520033,-0.51259 1.238037,-0.76483 1.877519,-1.10961 0.351958,-0.18976 -0.675834,0.42927 -1.013751,0.64391 -0.687586,0.4888 -0.933556,0.63035 -1.540834,1.18137 -0.514981,0.46727 -0.940935,1.03095 -1.494908,1.45537 -1.201047,0.70706 -2.353695,1.5074 -3.603142,2.12119 -0.164378,0.0807 -0.373013,-0.27954 -0.373086,-0.40662 -2.64e-4,-0.47291 0.536314,-0.84481 0.571207,-1.30198 1.806792,-3.62573 3.467978,-7.32802 5.406858,-10.88565 3.910895,-7.50482 7.857518,-14.99222 11.442054,-22.66756 2.562111,-5.40655 5.419127,-11.03261 6.85361,-16.88849 0.186528,-0.76145 0.300003,-1.53958 0.450003,-2.30937 0.09641,-1.57958 0.317068,-3.32669 -0.573173,-4.75543 -0.823744,-1.32202 -2.338983,-1.64489 -3.728356,-1.92732 -0.674992,-0.0658 -1.347543,-0.16732 -2.02497,-0.19741 -4.437515,-0.19709 -8.763441,0.87094 -12.735228,2.86747 0.168007,-0.10778 0.6646,-0.4423 0.504024,-0.32334 -0.681473,0.50486 -1.401033,0.95641 -2.067527,1.48163 -2.06384,1.62639 -3.869845,3.5928 -5.485094,5.67134 -0.958151,1.40848 -1.887609,2.85981 -2.239943,4.56287 -0.164719,0.76916 -0.340549,1.55696 -0.322728,2.34735 0,0 -3.525275,1.83075 -3.525275,1.83075 z"
       inkscape:connector-curvature="0" />
    <path
       style="fill:#0000ff;fill-opacity:1"
       id="path5253"
       d="m 132.43079,905.99276 c -1.07032,-0.0403 -2.13488,-0.22634 -3.20912,-0.18253 -0.31617,0.0129 -0.63062,0.0542 -0.94593,0.0812 -1.69107,0.22484 -3.31342,0.80422 -4.82051,1.6114 -0.53435,0.28619 -1.14567,0.48328 -1.56864,0.92223 -0.31188,0.32367 0.8119,-0.37212 1.21785,-0.55818 -3.4199,2.69461 -6.17107,6.15562 -8.47825,9.86018 -0.49853,0.80049 -0.9569,1.62624 -1.43536,2.43936 -1.92762,3.79447 -3.95243,7.76917 -4.33434,12.1028 -0.0648,0.73511 -0.0188,1.47601 -0.0282,2.21402 0.12041,0.7087 0.17323,1.43284 0.36122,2.12609 0.58835,2.16962 1.83963,4.14401 3.48059,5.64258 1.6787,1.53304 2.34935,1.69153 4.38134,2.72065 0.93092,0.28686 1.84115,0.65604 2.79276,0.86059 4.76282,1.02375 9.7877,0.28327 14.35472,-1.26624 1.30869,-0.44402 2.56639,-1.03111 3.84959,-1.54666 1.21722,-0.64098 2.46541,-1.22424 3.65166,-1.92293 0.31041,-0.18283 0.54322,-0.47706 0.81916,-0.71034 0.93508,-0.79051 1.93123,-1.51006 2.8138,-2.36097 1.51871,-1.46423 2.912,-3.22394 3.89365,-5.11508 0.4503,-0.8675 0.73457,-1.81445 1.10186,-2.72168 0.18671,-0.92345 0.4544,-1.83368 0.56014,-2.77035 0.30377,-2.69094 -0.14273,-5.37169 -1.0502,-7.89827 -0.69163,-1.92566 -1.03332,-2.34883 -2.02244,-4.0601 -1.14,-1.6765 -2.51427,-3.2404 -4.34587,-4.14234 -0.28681,-0.14124 -0.59602,-0.22928 -0.89402,-0.34392 0,0 3.11561,-2.11846 3.11561,-2.11846 l 0,0 c 0.29436,0.14061 0.60086,0.2574 0.88309,0.42183 1.79299,1.04463 3.11469,2.68916 4.21958,4.43279 0.34617,0.64191 0.72834,1.26498 1.03849,1.92574 1.49832,3.19205 2.37876,6.77896 1.99101,10.33341 -0.10471,0.95985 -0.37457,1.89343 -0.56186,2.84014 -1.05472,2.63235 -1.07536,3.17818 -2.83131,5.49104 -3.73875,4.92453 -9.3145,7.8371 -14.67078,10.55059 -1.29469,0.51108 -2.56463,1.09277 -3.88407,1.53323 -4.6805,1.56244 -9.81553,2.32971 -14.69274,1.30082 -0.97913,-0.20656 -1.91696,-0.58048 -2.87544,-0.87072 -2.09384,-1.0444 -2.79402,-1.20907 -4.53056,-2.77144 -1.70197,-1.53127 -3.00521,-3.5575 -3.62048,-5.79102 -0.19664,-0.71381 -0.25235,-1.46035 -0.37852,-2.19052 0.0112,-0.75826 -0.035,-1.51964 0.0335,-2.27477 0.39805,-4.3929 2.45615,-8.41443 4.39398,-12.27093 0.47488,-0.81744 0.93119,-1.64639 1.42464,-2.45232 2.26116,-3.69313 4.93811,-7.16244 8.26811,-9.91556 3.66544,-2.31048 7.02792,-4.95237 11.38893,-5.52343 0.32961,-0.024 0.65856,-0.0606 0.98882,-0.072 1.11534,-0.0383 2.2268,0.14619 3.34193,0.0798 0,0 -3.18736,2.36026 -3.18736,2.36026 z"
       inkscape:connector-curvature="0" />
    <path
       style="fill:#0000ff;fill-opacity:1"
       id="path5257"
       d="m 154.67742,905.42266 c 0.62201,-0.91392 1.4493,-1.62641 2.34093,-2.25232 1.34237,-0.77484 2.66055,-1.59494 4.02712,-2.32451 0.30253,-0.16152 0.63996,-0.24534 0.96798,-0.34224 1.20494,-0.35595 2.46355,-0.5648 3.71853,-0.58035 0.45517,-0.006 0.90978,0.0343 1.36467,0.0514 1.09767,0.14828 3.04359,0.0386 3.92205,0.88383 0.53403,0.51381 0.46484,0.86695 0.5768,1.56898 -0.0445,0.38767 -0.0574,0.78047 -0.1335,1.163 -0.36125,1.81547 -1.14029,3.55864 -1.88009,5.23572 -0.81271,1.84236 -1.50032,3.25532 -2.37221,5.09262 -2.00509,4.11866 -4.12109,8.18627 -5.7921,12.4637 -0.98863,2.5307 -1.10879,3.0904 -1.87452,5.60897 -0.64134,2.49619 -1.09235,5.09227 -0.53654,7.65285 0.22357,1.02996 0.42606,1.3867 0.82588,2.31333 0.76593,1.52246 1.93474,2.427 3.37054,3.22197 1.10745,0.63082 2.27124,1.16401 3.44536,1.65315 0.73401,0.32151 1.49968,0.34994 2.26641,0.17115 0.24751,-0.057 0.27415,-0.0397 0.48354,-0.17241 0.0677,-0.0429 0.2608,-0.18606 0.19121,-0.14643 -1.06098,0.60426 -2.09571,1.25649 -3.16712,1.84131 -0.0819,0.0447 0.12742,-0.1381 0.18409,-0.21307 0.0576,-0.0762 0.10535,-0.15962 0.15802,-0.23943 0.36829,-0.79122 0.60785,-1.63863 0.87237,-2.47013 0.61409,-1.97699 1.39925,-3.87561 2.28214,-5.74166 1.03741,-2.03192 2.13809,-4.03613 3.40042,-5.9335 1.02015,-1.53336 1.64262,-2.32289 2.76515,-3.82893 4.15877,-5.32165 8.10831,-10.80551 12.08565,-16.26768 1.99861,-2.70241 4.13081,-5.31483 6.54964,-7.6409 1.16992,-1.12506 2.81428,-2.5473 4.20722,-3.4214 1.59055,-0.99812 3.24314,-1.8897 4.86472,-2.83455 2.22999,-1.12517 4.66365,-1.57149 7.14072,-1.43728 1.30366,0.0706 1.94815,0.23756 3.23146,0.48078 3.75215,0.82536 7.52461,1.51991 11.33553,1.99102 2.04176,0.25612 4.08965,0.33916 6.14387,0.36086 0,0 -2.82653,2.08442 -2.82653,2.08442 l 0,0 c -2.0466,-0.0607 -4.08932,-0.16509 -6.12355,-0.41957 -3.84369,-0.47554 -7.65985,-1.13044 -11.45132,-1.93184 -1.20967,-0.20803 -1.96614,-0.37886 -3.19044,-0.43081 -2.40278,-0.10196 -4.75326,0.37586 -6.90614,1.47849 0.29149,-0.1948 1.15797,-0.79107 0.87446,-0.58441 -0.70649,0.51498 -1.45544,0.96977 -2.14379,1.50966 -2.49584,1.95755 -4.69744,4.30142 -6.71588,6.75531 -0.75247,0.9148 -1.45559,1.87061 -2.18339,2.80591 -3.92943,5.38916 -7.79108,10.82954 -11.81196,16.14898 -1.0308,1.4211 -1.69638,2.29952 -2.643,3.74636 -1.21987,1.86451 -2.27838,3.83128 -3.27471,5.82704 -0.49936,1.07564 -1.0008,2.15181 -1.39599,3.27336 -0.29135,0.82686 -0.27109,0.90851 -0.51972,1.71051 -0.065,0.20973 -0.14023,0.41603 -0.21034,0.62405 -0.24977,0.84437 -0.49578,1.68623 -0.77458,2.52067 -0.82567,1.69115 -2.79303,2.5926 -4.56428,2.95817 -0.80718,0.0938 -1.60019,-0.0411 -2.33741,-0.39694 -1.16544,-0.52579 -2.33388,-1.05494 -3.43673,-1.70914 -1.5148,-0.8869 -2.64645,-1.84198 -3.40517,-3.50004 -0.36701,-0.96323 -0.57617,-1.39523 -0.77457,-2.4488 -0.5045,-2.67896 0.01,-5.36085 0.7547,-7.93943 0.83182,-2.55519 0.97677,-3.13325 2.00172,-5.70308 1.69027,-4.23797 3.7582,-8.29731 5.68291,-12.4254 0.87142,-1.94009 1.39578,-3.0653 2.19353,-4.99297 0.67016,-1.61939 1.35262,-3.28348 1.67371,-5.02115 0.0634,-0.34337 0.0761,-0.69449 0.11418,-1.04173 -0.0679,-0.54874 0.002,-0.85934 -0.4239,-1.25501 -0.82129,-0.7623 -2.67209,-0.69032 -3.68105,-0.82371 -0.44831,-0.006 -0.89693,-0.037 -1.34491,-0.0185 -1.2576,0.0518 -2.52861,0.29955 -3.71968,0.71459 -0.3306,0.1152 -1.25457,0.6106 -0.97068,0.40304 0.77369,-0.56566 1.6367,-0.99221 2.45505,-1.48831 -0.85513,0.53869 -1.71326,1.18354 -2.25299,2.06655 0,0 -3.63349,1.5959 -3.63349,1.5959 z"
       inkscape:connector-curvature="0" />
    <path
       style="fill:#0000ff;fill-opacity:1"
       id="path5261"
       d="m 198.88194,930.06543 c 0.12289,-0.0603 0.243,-0.12686 0.36868,-0.18087 0.80622,-0.34651 1.63217,-0.64542 2.43414,-1.0039 1.0611,-0.47432 1.8033,-0.86017 2.86686,-1.39008 0.61278,-0.35334 1.2582,-0.65344 1.83834,-1.06001 0.25894,-0.18147 -1.09587,0.59769 -0.8664,0.37886 0.63766,-0.6081 1.42611,-1.02849 2.1176,-1.57206 1.23972,-0.97455 2.91849,-2.41625 4.03519,-3.53955 0.60338,-0.60695 1.15457,-1.26553 1.73186,-1.89829 2.05558,-2.5445 3.89415,-5.49612 4.13971,-8.87358 0.0292,-0.40175 -0.01,-0.80565 -0.015,-1.20847 -0.11957,-0.75921 -0.25466,-2.12132 -1.27238,-2.20478 -0.43205,-0.0354 -0.98227,0.20337 -1.36079,0.32949 -1.18456,0.49023 -0.91149,0.34209 -2.13755,1.01409 -0.46607,0.25545 -1.07164,0.35352 -1.38753,0.78624 -0.30854,0.42267 1.74259,-1.11102 1.36332,-0.75308 -0.56545,0.53364 -1.29739,0.84842 -1.93375,1.29143 -0.71049,0.49463 -1.40409,1.01402 -2.10613,1.52103 -3.82564,2.86559 -7.48262,5.98699 -10.7842,9.47048 -0.62703,0.66158 -1.22355,1.3525 -1.83532,2.02875 -2.05412,2.384 -3.8985,4.97326 -5.07915,7.92738 -0.58337,1.45965 -0.66223,1.98476 -1.03355,3.47864 -0.26074,1.72684 -0.281,3.5877 0.5128,5.19124 0.42302,0.85452 0.64897,0.96654 1.31236,1.61716 2.22017,1.57641 4.90468,2.15139 7.5698,2.3117 0.77222,0.0464 1.54682,0.0316 2.32023,0.0474 6.12649,-0.0551 12.11787,-1.46617 18.05419,-2.86952 5.17143,-1.27736 10.33544,-2.59733 15.57005,-3.5821 0,0 -2.76822,2.12725 -2.76822,2.12725 l 0,0 c -5.14714,0.90894 -10.22651,2.15318 -15.30382,3.3973 -6.01906,1.40343 -12.08718,2.82753 -18.29042,2.94769 -0.79653,-0.0107 -1.59409,0.0105 -2.38958,-0.0322 -2.78612,-0.14941 -5.60943,-0.71072 -7.92939,-2.36561 -0.69249,-0.7076 -0.94894,-0.85068 -1.38172,-1.76989 -0.79815,-1.69527 -0.76797,-3.65612 -0.47325,-5.46221 0.39594,-1.54793 0.47488,-2.06324 1.08796,-3.57658 1.21952,-3.0103 3.09875,-5.65643 5.19325,-8.09449 0.61985,-0.68504 1.22481,-1.3844 1.85956,-2.05513 3.28505,-3.47129 6.90359,-6.6054 10.69139,-9.48979 1.08621,-0.80376 2.71406,-2.0443 3.88217,-2.77682 1.54074,-0.9662 3.10804,-1.8878 4.67088,-2.81639 0.69986,-0.41584 1.90836,-1.09354 2.68218,-1.44457 0.34516,-0.15658 0.70505,-0.27696 1.05757,-0.41543 0.58458,-0.1393 0.98393,-0.32749 1.58021,-0.15036 1.10222,0.32742 1.23742,1.72406 1.33506,2.67076 -0.006,0.43018 0.0238,0.86245 -0.0181,1.29055 -0.34073,3.47654 -2.19308,6.53895 -4.31438,9.18251 -0.58137,0.64475 -1.13622,1.31545 -1.74413,1.93426 -1.09479,1.1144 -2.79488,2.59207 -4.00884,3.56687 -0.67565,0.54254 -1.34597,1.09645 -2.0672,1.57416 -2.95558,1.95763 -4.25163,2.67175 -6.85647,4.16634 -1.97695,1.00143 -3.99366,1.90281 -5.99663,2.84397 0,0 3.07851,-2.50984 3.07851,-2.50984 z"
       inkscape:connector-curvature="0" />
    <path
       style="fill:#0000ff;fill-opacity:1"
       id="path5265"
       d="m 56.465195,1016.6065 c 0.873712,0.2181 1.737971,0.1148 2.609451,-0.047 0.24541,-0.06 0.495232,-0.1038 0.736224,-0.1803 0.461234,-0.1463 1.889521,-0.7289 2.234594,-0.8729 1.993026,-0.8317 3.943209,-1.7491 5.893846,-2.6783 2.01818,-1.0183 3.05372,-1.5141 5.04398,-2.629 0.0569,-0.032 -0.24172,0.086 -0.18931,0.047 0.81418,-0.608 1.68268,-1.1392 2.48583,-1.7622 2.16793,-1.6819 2.67128,-2.3048 4.6252,-4.2513 2.89878,-3.1395 5.38155,-6.65858 7.19114,-10.56352 1.20037,-2.59029 1.27598,-3.13564 2.13179,-5.85425 1.3475,-5.14292 1.78197,-10.48825 1.37676,-15.79278 -0.083,-1.08678 -0.23817,-2.16658 -0.35726,-3.24987 -0.61471,-4.02647 -1.50108,-8.01246 -2.90926,-11.83257 -0.87068,-2.36199 -1.12954,-2.77291 -2.20707,-5.03581 -2.10651,-3.95812 -4.81818,-7.62935 -8.44365,-10.27144 -0.74823,-0.54528 -1.5574,-0.99802 -2.3361,-1.49704 -2.21771,-1.03813 -2.9141,-1.48702 -5.30654,-2.10621 -2.918465,-0.75533 -6.069381,-0.97015 -9.067969,-0.76866 -1.085604,0.0729 -2.160284,0.2654 -3.240426,0.3981 -3.477143,0.64786 -6.809381,1.87352 -9.823114,3.7752 -0.235921,0.14887 -0.338107,0.45225 -0.54256,0.64345 -4.827041,4.51411 -1.17,0.59549 -5.584328,5.62737 -0.771103,1.13502 -1.611614,2.22419 -2.313307,3.40507 -2.92768,4.92696 -4.534596,10.54177 -5.362511,16.20691 -0.212747,1.45576 -0.315763,2.92599 -0.473644,4.38898 -0.359187,5.96987 -0.147557,11.98341 0.875655,17.88066 0.662307,3.81719 0.98311,4.56717 2.038886,8.24379 1.522472,4.65892 3.607314,9.11712 6.227966,13.23892 1.37515,2.1628 1.842553,2.6739 3.371395,4.6425 1.270692,1.4498 2.63911,2.8134 4.162381,3.987 0.590111,0.4547 1.214864,0.8862 1.890175,1.1963 1.687949,0.096 -2.629286,2.5846 -3.177034,2.1423 -0.431216,-0.3482 0.20976,0.1023 -0.172609,-0.1598 0,0 3.352892,-2.1552 3.352892,-2.1552 l 0,0 c 0.0075,0.01 0.315624,0.2676 0.296021,0.2819 -4.189342,3.0377 -2.226823,2.9467 -3.558686,2.049 -2.142971,-1.5598 -3.917054,-3.6033 -5.621645,-5.6261 -1.472947,-2.0137 -1.935725,-2.5589 -3.263638,-4.7528 -2.544981,-4.2047 -4.571638,-8.7222 -6.07105,-13.4189 -1.024155,-3.6834 -1.350902,-4.4978 -1.999185,-8.31267 -1.005741,-5.91836 -1.237014,-11.95071 -0.913999,-17.94113 0.150591,-1.4677 0.246246,-2.94233 0.451773,-4.40309 0.798782,-5.67725 2.379311,-11.32984 5.258613,-16.29373 0.689009,-1.18784 1.516948,-2.28606 2.275425,-3.42909 1.858088,-2.16261 3.202723,-3.97817 5.512598,-5.679 3.573231,-2.63108 8.007133,-5.35565 12.319452,-6.66106 1.101463,-0.33343 2.239774,-0.52407 3.35966,-0.78611 1.095239,-0.12951 2.185281,-0.31835 3.285715,-0.38855 3.046429,-0.19434 6.222807,0.0334 9.183448,0.81505 2.44653,0.64595 3.11051,1.08464 5.37842,2.15561 2.16177,1.38633 2.60297,1.5354 4.49532,3.27444 2.65618,2.44099 4.71248,5.44658 6.39525,8.64363 0.39494,0.83196 0.81906,1.65017 1.18482,2.49588 1.9984,4.62071 3.0974,9.56544 3.86661,14.535 0.12322,1.08907 0.28069,2.17469 0.36966,3.26722 0.43406,5.32999 0.032,10.70203 -1.29596,15.88013 -0.84167,2.72887 -0.92292,3.30765 -2.11463,5.90807 -1.80128,3.93058 -4.28775,7.47609 -7.16393,10.6615 -1.91504,1.9455 -2.44377,2.605 -4.5756,4.2894 -3.94876,3.1201 -8.48114,5.3745 -12.924466,7.6529 -2.033557,0.9827 -4.066291,1.961 -6.140936,2.8514 -0.690099,0.2961 -1.656428,0.7063 -2.401155,0.9326 -0.257527,0.078 -0.523519,0.124 -0.785279,0.186 -0.932936,0.1463 -1.85714,0.191 -2.789583,0 0,0 3.245484,-2.3049 3.245484,-2.3049 z"
       inkscape:connector-curvature="0" />
    <path
       style="fill:#0000ff;fill-opacity:1"
       id="path5281"
       d="m 82.80087,1007.8913 c 2.43724,-0.4968 4.81111,-1.4235 7.06713,-2.4768 0.78198,-0.3651 1.54137,-0.7784 2.31205,-1.1677 0.80569,-0.473 1.64635,-0.8889 2.41706,-1.419 0.0867,-0.06 -0.38984,0.043 -0.31247,-0.029 4.028189,-3.73341 0.84231,-0.02 4.645729,-4.03835 1.896921,-2.00422 2.028331,-2.42117 3.512671,-4.69291 0.39563,-0.80556 0.84488,-1.586 1.18689,-2.41667 1.07795,-2.61814 1.58011,-5.56734 1.27711,-8.40006 -0.0507,-0.47409 -0.17157,-0.93762 -0.25735,-1.40643 -0.28895,-0.85528 -0.58675,-1.86345 -1.39979,-2.37652 -0.74994,-0.47326 -1.74673,-0.374 -2.57262,-0.35055 -0.4166,0.0532 -0.836681,0.0834 -1.249811,0.15975 -1.785,0.33 -3.501059,0.99818 -5.142109,1.77138 -3.40711,1.60529 -2.88996,1.39345 -1.93514,1.02511 -4.91153,3.27943 -9.39509,7.23106 -13.13163,11.8594 -0.73036,0.90467 -1.39067,1.86581 -2.086,2.79871 -1.95012,3.06099 -3.77077,6.38664 -4.2314,10.07284 -0.21826,1.7466 -0.0457,2.1929 0.19292,3.8802 0.20421,0.5549 0.34851,1.1367 0.61263,1.6646 0.78978,1.5787 2.17142,2.8783 3.6619,3.7562 1.33216,0.7847 2.38524,1.0643 3.84404,1.5716 4.62054,1.1957 9.39159,1.8049 14.15788,1.8823 1.20178,0.019 2.403729,-0.025 3.605599,-0.038 5.244461,-0.174 10.425001,-1.0715 15.475301,-2.5004 2.97793,-0.8425 4.17429,-1.3195 7.0711,-2.3477 0,0 -2.40135,1.9055 -2.40135,1.9055 l 0,0 c -2.90299,1.0101 -4.04913,1.4615 -7.03359,2.284 -5.08676,1.4018 -10.30355,2.2711 -15.57224,2.4859 -1.22182,0.02 -2.44351,0.072 -3.66545,0.062 -4.86288,-0.042 -9.74326,-0.5874 -14.46623,-1.7781 -1.55658,-0.5262 -2.56237,-0.7706 -3.97745,-1.6053 -1.55819,-0.9192 -2.97542,-2.2742 -3.78623,-3.9312 -0.27124,-0.5543 -0.41904,-1.1629 -0.62855,-1.7444 -0.22987,-1.75 -0.4085,-2.2333 -0.15534,-4.04 0.53016,-3.7836 2.45663,-7.1885 4.46045,-10.33633 0.70615,-0.94587 1.37931,-1.9183 2.11845,-2.83762 3.69491,-4.59569 8.08348,-8.56748 12.91792,-11.87684 4.47332,-2.68626 9.035589,-5.84224 14.34881,-6.37428 0.95682,5.4e-4 1.97886,-0.0583 2.79787,0.56377 0.83281,0.63257 1.10496,1.70776 1.36891,2.66477 0.0716,0.49522 0.17938,0.9864 0.21486,1.48566 0.20773,2.92313 -0.32211,5.96907 -1.43141,8.66602 -0.3494,0.84945 -0.8075,1.64808 -1.21125,2.47212 -1.49377,2.30845 -1.6352,2.74298 -3.53494,4.78497 -3.533181,3.79776 -7.83453,6.30936 -12.29295,8.83006 -0.79339,0.3988 -1.57648,0.8196 -2.38017,1.1964 -2.42544,1.1369 -4.94795,2.0927 -7.5332,2.7735 0,0 3.12139,-2.4327 3.12139,-2.4327 z"
       inkscape:connector-curvature="0" />
    <path
       style="fill:#0000ff;fill-opacity:1"
       id="path5291"
       d="m 116.49028,972.94089 c 0.68711,-0.005 1.36127,0.0602 1.99236,0.34754 0.92833,0.77724 1.09267,2.11359 1.30509,3.244 0.60182,3.77574 0.57303,7.62053 0.61484,11.43478 0.0134,5.52248 -0.62894,11.01456 -1.19945,16.49769 -0.34375,2.937 -0.72354,5.881 -1.35452,8.7714 -0.21778,0.9976 -0.5317,2.1027 -0.80221,3.093 -0.23547,0.874 -0.57413,1.7135 -0.83074,2.5803 -0.0314,0.106 -0.059,0.2132 -0.0816,0.3215 -0.007,0.035 0.0239,0.091 -0.008,0.106 -1.17504,0.5493 -2.37482,1.0418 -3.56223,1.5627 0.80328,-1.3365 1.45219,-2.7572 2.0264,-4.2086 1.21031,-3.3756 2.11684,-6.8532 3.02556,-10.3224 0.93579,-3.5577 1.97779,-7.0926 3.4312,-10.46893 0.51376,-1.05411 1.01297,-2.15954 1.85693,-2.99039 1.13119,-1.1136 2.6977,-1.6493 4.06867,-2.43471 0.853,-0.18211 1.30036,0.399 1.72922,1.05358 0.55548,1.09681 0.71343,2.33318 0.92647,3.53234 0.22756,1.27477 0.32171,2.56662 0.38206,3.85899 0.0926,0.85863 -0.071,1.75252 0.1315,2.59722 -3.83932,2.2455 -3.65323,2.6384 -3.15853,0.4566 0.142,-0.8361 0.50997,-1.5748 0.91542,-2.30387 0.50315,-0.82874 0.95496,-1.69348 1.54679,-2.46113 1.40684,-1.45046 3.26755,-2.99954 5.33154,-2.79365 1.28486,0.27675 2.25995,1.29389 3.12679,2.23542 1.5239,1.87899 2.26065,4.21523 3.13814,6.44293 0.75519,1.9185 1.49718,3.8449 2.58396,5.5971 0.6521,0.9991 1.464,1.8715 2.39843,2.5982 0.3616,0.235 0.73085,0.4556 1.09568,0.6851 0,0 -3.29832,2.1678 -3.29832,2.1678 l 0,0 c -0.37097,-0.2362 -0.7335,-0.4842 -1.08468,-0.7503 -0.9228,-0.8 -1.74372,-1.7073 -2.37269,-2.7691 -1.05724,-1.7978 -1.79901,-3.7488 -2.53438,-5.7015 -0.84674,-2.1901 -1.5704,-4.482 -3.14262,-6.26844 -0.84795,-0.86303 -1.81875,-1.80308 -3.07327,-1.90608 -0.28878,0.0179 -0.38951,0.006 -0.66578,0.0931 -0.1059,0.0334 -0.40292,0.18591 -0.30839,0.12689 5.49375,-3.43009 3.39944,-2.23978 2.38025,-1.29445 -0.66614,0.69102 -1.06071,1.58016 -1.57693,2.38555 -0.38642,0.69995 -0.81847,1.38521 -0.93784,2.19603 -0.0814,0.3106 -0.15252,0.6293 -0.19718,0.948 -0.0128,0.091 0.0554,0.2261 -0.0207,0.2761 -3.51359,2.31 -3.01378,3.3446 -3.6198,1.9303 -0.13461,-0.8911 -0.0261,-1.7967 -0.0781,-2.6941 -0.0388,-1.27872 -0.11219,-2.55864 -0.34069,-3.81915 -0.20318,-1.13942 -0.34999,-2.32059 -0.8985,-3.35386 -0.42869,-0.59255 -0.69222,-0.89008 -1.43341,-0.60545 6.20508,-3.76781 2.89999,-1.98164 2.06134,-1.09075 -0.69155,0.73461 -1.15598,1.64079 -1.6364,2.52261 -1.57145,3.3492 -2.67779,6.8938 -3.60143,10.4809 -0.86873,3.4397 -1.72586,6.8867 -2.81362,10.2631 -0.49537,1.4247 -1.10562,2.7893 -1.73158,4.1557 -1.22631,0.5847 -2.44509,1.186 -3.67892,1.7539 -0.0385,0.018 0.0633,-0.06 0.0821,-0.098 0.0575,-0.1173 0.0959,-0.2433 0.14463,-0.3646 0.35375,-0.8803 0.72351,-1.7541 1.03518,-2.6514 0.31605,-1.0089 0.67134,-2.0954 0.92497,-3.119 0.71692,-2.8934 1.13143,-5.8577 1.50955,-8.8124 0.64025,-5.4624 1.31229,-10.94598 1.22241,-16.45817 -0.12449,-3.73449 -0.19622,-7.507 -0.95072,-11.17727 -0.21651,-0.90314 -0.43694,-2.26193 -1.25539,-2.8287 -0.62632,-0.21881 -1.28257,-0.2408 -1.94009,-0.19946 0,0 3.20088,-2.37028 3.20088,-2.37028 z"
       inkscape:connector-curvature="0" />
    <path
       style="fill:#0000ff;fill-opacity:1"
       id="path5293"
       d="m 153.04355,987.89112 c -0.8191,-0.0793 -1.60168,0.0235 -2.38945,0.24774 -0.16269,0.0572 -0.329,0.1047 -0.48807,0.17167 -0.16935,0.0713 -0.33459,0.15322 -0.49555,0.24245 -0.17275,0.0958 -0.67634,0.40903 -0.50437,0.31184 0.89688,-0.50688 1.7643,-1.06928 2.67941,-1.54109 0.25932,-0.1337 -0.47676,0.33941 -0.7048,0.523 -0.27387,0.2205 -0.53331,0.459 -0.79996,0.6885 -2.29674,2.14291 -4.09199,4.76161 -5.69773,7.46116 -1.37758,2.44229 -2.56916,5.02061 -3.0532,7.81581 -0.0939,0.5422 -0.13221,1.0929 -0.19831,1.6394 -0.0905,2.9371 0.87295,5.7226 2.5131,8.1182 0.32739,0.4782 0.70111,0.9216 1.05166,1.3824 1.8058,2.014 3.98495,3.6583 6.48196,4.6706 0.44523,0.1804 0.9071,0.315 1.36065,0.4725 1.60945,0.4731 3.25947,0.7572 4.93357,0.5461 0.97974,-0.1235 1.35031,-0.2594 2.30588,-0.5173 -0.5893,0.4873 3.06058,-1.4548 2.28852,-1.1065 -0.66297,0.2991 -1.21677,1.0324 -1.9411,1.0002 -0.52483,-0.023 0.82572,-0.6645 1.20698,-1.0329 1.10372,-1.0663 1.37742,-1.5393 2.31811,-2.7918 1.61992,-2.4363 2.79215,-5.1468 3.41245,-8.0253 0.44924,-2.0847 0.4198,-2.8059 0.56722,-4.9484 0.0531,-4.96526 -0.90037,-9.85106 -2.07295,-14.64566 -0.35066,-1.34855 -0.62395,-2.73273 -1.13283,-4.03387 -0.19752,-0.50504 -0.40317,-0.93413 -0.84014,-1.24281 0.13656,-0.31817 -0.66206,0.33218 -0.50765,0.24582 5.31522,-2.97264 4.00608,-2.40409 2.83972,-1.62682 -0.3694,0.27172 -0.46438,0.67242 -0.44494,1.11311 0.0308,0.51785 0.15241,1.02338 0.20033,1.53836 0.0954,0.64914 0.28979,1.28597 0.46028,1.9199 0.61038,2.54573 1.18941,5.09861 1.8304,7.6366 1.31196,4.43482 2.17899,9.00867 3.66599,13.39037 0.30083,0.8865 0.65561,1.7529 0.98341,2.6294 1.28257,3.0853 3.0879,5.8959 5.46286,8.2227 1.30034,1.274 1.90879,1.6488 3.34412,2.7087 1.95837,1.3373 4.07245,2.4254 6.3446,3.0836 1.17743,0.3411 1.61148,0.3817 2.80193,0.5851 1.77941,0.2454 3.65353,0.2918 5.34875,-0.4094 0.22953,-0.095 0.44307,-0.2259 0.66461,-0.3389 -5.1279,2.939 -2.80972,1.8593 -1.93002,0.8862 0.2442,-0.2702 0.40672,-0.5868 0.56636,-0.9116 0.1656,-0.3582 0.20577,-0.7195 0.0955,-1.0952 0,0 3.45092,-1.9349 3.45092,-1.9349 l 0,0 c 0.17059,0.4948 0.18649,0.8675 0.0141,1.3746 -0.14779,0.3528 -0.31964,0.7579 -0.55145,1.0621 -1.09396,1.4352 -3.51588,2.211 -4.62591,3.0299 -0.2256,0.094 -0.44553,0.2032 -0.67681,0.2812 -1.72032,0.5803 -3.57101,0.4533 -5.33252,0.1786 -1.22576,-0.2396 -1.58198,-0.2729 -2.79004,-0.6605 -2.25902,-0.7248 -4.36474,-1.8624 -6.29931,-3.2468 -1.43123,-1.1088 -2.01457,-1.4888 -3.31609,-2.8013 -2.37335,-2.3932 -4.18501,-5.2395 -5.43091,-8.3944 -0.32401,-0.8861 -0.67347,-1.7629 -0.97205,-2.6582 -1.45932,-4.376 -2.37038,-8.9265 -3.85639,-13.29531 -0.73667,-2.47374 -1.42325,-4.96266 -2.19634,-7.42507 -0.20839,-0.64872 -0.40933,-1.3057 -0.5544,-1.97104 -0.0171,-0.51761 -0.14651,-1.01855 -0.19084,-1.53504 -0.0606,-0.52168 -0.048,-1.02456 0.27629,-1.46394 0.19457,-0.19491 0.11114,-0.13549 0.34472,-0.27455 1.18344,-0.7045 2.35448,-1.43126 3.55234,-2.10997 0.11169,-0.0633 0.38307,-0.0247 0.48586,0.0148 0.0938,0.0361 0.17408,0.10161 0.26112,0.15241 0.66921,0.73276 0.83485,1.61116 1.05696,2.57042 0.18984,0.81989 0.49163,2.36379 0.64586,3.13356 0.99789,4.8751 2.0258,9.78426 2.01011,14.79093 -0.0451,0.8534 -0.0513,1.7097 -0.1353,2.56 -0.37116,3.759 -1.60165,7.352 -3.61057,10.5248 -0.88142,1.247 -1.16626,1.7594 -2.2128,2.8329 -1.64452,1.6868 -3.20234,2.3875 -5.43606,3.7383 -0.38453,0.2325 -0.78514,0.4388 -1.19476,0.6215 -0.38111,0.17 -0.78194,0.2897 -1.17292,0.4345 -0.9465,0.2323 -1.39157,0.3793 -2.36279,0.4683 -1.68621,0.1545 -3.34636,-0.2144 -4.95039,-0.7123 -0.45568,-0.1704 -0.92019,-0.3182 -1.36705,-0.5114 -2.51314,-1.0866 -4.7079,-2.7827 -6.52209,-4.8495 -0.35553,-0.4718 -0.73481,-0.9259 -1.06661,-1.4154 -1.32597,-1.956 -2.31666,-4.2436 -2.59273,-6.6214 -0.0653,-0.5622 -0.0395,-1.1315 -0.0592,-1.6972 0.0595,-0.5577 0.0891,-1.1195 0.17853,-1.673 0.45864,-2.8381 1.64963,-5.45801 3.03879,-7.93548 1.55672,-2.68254 3.2872,-5.29621 5.47703,-7.49057 1.85835,-1.73082 2.45666,-1.88697 5.2666,-3.56301 0.49278,-0.29394 1.01903,-0.5176 1.57295,-0.65969 0.83052,-0.18926 1.6611,-0.23124 2.51097,-0.21803 0,0 -3.19412,2.36527 -3.19412,2.36527 z"
       inkscape:connector-curvature="0" />
    <path
       style="fill:#0000ff;fill-opacity:1"
       id="path5307"
       d="m 175.18992,981.81628 c 1.22097,-0.18341 2.42339,0.1319 3.60016,0.4323 2.17616,0.68132 4.31475,1.78398 5.77869,3.62017 0.36046,0.45211 0.63674,0.96766 0.9551,1.45148 0.25058,0.56041 0.55559,1.09871 0.75173,1.68122 1.00068,2.97182 0.60075,6.24366 -0.0751,9.23624 -0.21731,0.9623 -0.51028,1.90521 -0.76542,2.85781 -1.62061,5.192 -3.89469,10.1691 -6.69555,14.8092 -0.47106,0.7804 -0.9844,1.5334 -1.4766,2.3001 -1.03614,1.567 -2.17756,3.0574 -3.23584,4.6082 -0.37451,0.5488 -0.73057,1.0816 -0.97695,1.7002 -0.0106,0.05 -0.004,0.1077 -0.0318,0.1507 -0.0815,0.1267 0.0536,-0.2976 0.0338,-0.2852 -1.01403,0.6338 -1.96285,1.3708 -2.96463,2.0246 -0.14682,0.096 0.26809,-0.2275 0.39593,-0.3483 0.18107,-0.1712 0.35358,-0.3515 0.53037,-0.5272 2.17612,-2.3529 3.54234,-5.2915 4.81049,-8.2157 1.88778,-4.8486 3.13206,-9.921 4.48841,-14.9415 1.02718,-3.66137 2.22115,-7.34522 4.37383,-10.50158 0.33648,-0.49337 0.72433,-0.94819 1.0865,-1.42228 0.38006,-0.37705 0.73569,-0.7815 1.14018,-1.13115 1.16942,-1.01087 5.37959,-3.60713 5.43992,-3.64064 1.04271,-0.57921 3.00711,-0.46895 4.1547,-0.42826 2.02277,0.21451 3.92164,0.95015 5.54279,2.21363 1.17967,0.91941 1.5326,1.43974 2.53397,2.58591 2.9451,3.85319 4.47053,8.48195 5.96533,13.05397 1.27722,4.2064 2.54666,8.4134 4.09114,12.5268 0.68527,1.9133 1.54735,3.8151 3.0486,5.2155 0.80853,0.7543 1.16289,0.8727 2.10806,1.3896 1.40975,0.4489 0.70364,0.3032 2.11485,0.4542 0,0 -2.86156,2.4231 -2.86156,2.4231 l 0,0 c -1.44835,-0.2484 -0.72644,-0.056 -2.16132,-0.5957 -0.97172,-0.5713 -1.32246,-0.7008 -2.15217,-1.5077 -1.50942,-1.4678 -2.36529,-3.4185 -3.03205,-5.3958 -1.47139,-4.1613 -2.6699,-8.4108 -3.95108,-12.6357 -1.46992,-4.5271 -2.99521,-9.10169 -6.01629,-12.83965 -0.42413,-0.45799 -0.824,-0.94063 -1.27237,-1.37398 -1.86586,-1.80337 -4.15263,-2.9153 -6.72423,-3.11684 -1.07607,-0.01 -1.68158,-0.0762 -2.74215,0.1532 -0.44024,0.0952 -1.45043,0.83456 -1.29001,0.406 0.2579,-0.68897 1.23049,-0.82827 1.66794,-1.41563 0.63548,-0.85326 -3.37057,2.69008 -2.47568,1.99027 -0.38086,0.4699 -0.78834,0.91865 -1.14257,1.40971 -2.25148,3.12117 -3.51929,6.81383 -4.57396,10.49582 -1.3615,4.9974 -2.60304,10.0419 -4.35293,14.9172 -1.1778,2.8742 -2.43126,5.7613 -4.42432,8.1618 -1.46559,1.5762 -1.55044,1.6234 -4.29424,3.3084 -0.17707,0.1087 -0.4652,-0.2655 -0.49538,-0.3657 -0.0241,-0.08 0.0249,-0.1659 0.0374,-0.2489 0.28013,-0.7207 0.712,-1.3 1.17039,-1.9204 1.17456,-1.5896 2.41796,-3.1263 3.54252,-4.7545 0.52118,-0.7755 1.06707,-1.5344 1.56355,-2.3266 2.86302,-4.5681 5.12046,-9.5295 6.69317,-14.7058 0.24141,-0.9335 0.52081,-1.8576 0.72423,-2.80044 0.62322,-2.88841 0.98281,-6.08057 -0.002,-8.93577 -0.19349,-0.56094 -0.49356,-1.07756 -0.74034,-1.61633 -0.3125,-0.45932 -0.58352,-0.95104 -0.93749,-1.37796 -1.47165,-1.77497 -3.61516,-2.78408 -5.77453,-3.36049 -1.20681,-0.24569 -2.44384,-0.4822 -3.66172,-0.16324 0,0 2.95663,-2.67839 2.95663,-2.67839 z"
       inkscape:connector-curvature="0" />
    <path
       style="fill:#0000ff;fill-opacity:1"
       id="path5341"
       d="m 250.42637,939.45693 c -0.0365,2.17218 0.26644,4.34302 0.47223,6.50244 0.34216,3.46324 0.79303,6.91462 1.09437,10.38214 0.2829,3.2553 0.28713,3.8243 0.47163,7.15873 0.15151,5.6719 -0.0212,11.36241 -0.72767,16.99465 -0.48217,3.84406 -0.76466,4.97945 -1.49387,8.76553 -1.12124,5.09898 -2.67604,10.10678 -4.84124,14.84948 -1.19639,2.6206 -1.55967,3.1316 -2.95601,5.5734 -1.32132,2.1796 -2.8661,4.212 -4.76216,5.9059 -1.64026,1.4653 -4.88989,3.5567 -6.2917,4.3703 -0.58896,0.3418 -1.2646,0.4974 -1.8969,0.7461 -3.3329,1.07 -6.86701,1.0243 -10.27618,0.3495 -0.70648,-0.1398 -1.39837,-0.3475 -2.09756,-0.5213 -2.80143,-0.8961 -5.51621,-2.179 -7.73304,-4.1793 -1.45279,-1.3108 -1.87306,-1.9969 -3.08196,-3.5534 -2.07504,-2.9044 -3.65778,-6.1395 -4.47691,-9.6451 -0.53175,-2.2758 -0.47642,-2.828 -0.6282,-5.12253 0.0879,-2.03861 0.39719,-4.10881 1.6931,-5.75801 1.28856,-1.63985 4.9791,-3.71099 6.03042,-4.23654 0.70274,-0.35131 1.52521,-0.35938 2.28781,-0.53906 0.90199,-0.0685 1.80181,-0.18089 2.70598,-0.20537 4.39089,-0.11888 8.92637,0.48038 13.20349,1.45902 1.10813,0.25355 2.20076,0.57296 3.30115,0.85943 3.69085,1.11429 7.36226,2.53778 10.51024,4.84874 1.6919,1.24205 1.90351,1.6197 3.28588,3.13698 1.04333,1.52904 1.28546,1.72071 2.0114,3.41464 0.93993,2.1931 1.40384,4.6035 1.96387,6.9162 0.68037,2.7791 1.45004,5.5283 2.55433,8.1649 0.51077,0.9983 1.02982,2.0324 1.82317,2.8361 0.36073,0.3654 0.52658,0.44 0.95037,0.7136 1.71697,0.6826 3.61418,0.6556 5.42874,0.6537 0,0 -2.71795,2.3694 -2.71795,2.3694 l 0,0 c -1.92513,0.026 -3.96412,0.133 -5.76978,-0.6603 -0.17501,-0.1222 -0.35986,-0.231 -0.52504,-0.3667 -1.07194,-0.8808 -1.6713,-2.2257 -2.26962,-3.4489 -1.05223,-2.6906 -1.78193,-5.4877 -2.4536,-8.2991 -0.54313,-2.2769 -0.99528,-4.7077 -1.88303,-6.8749 -0.67032,-1.6364 -0.93387,-1.8855 -1.90099,-3.37381 -1.31066,-1.49058 -1.54136,-1.89531 -3.1536,-3.12664 -3.05382,-2.33231 -6.64579,-3.78527 -10.26789,-4.90751 -1.09085,-0.28609 -2.17311,-0.60871 -3.27256,-0.85827 -4.29795,-0.97561 -8.8866,-1.52281 -13.29323,-1.26167 -0.91881,0.0544 -1.82947,0.20711 -2.74421,0.31066 -0.76651,0.21673 -1.54232,0.89858 -2.29952,0.65017 -0.46062,-0.15111 1.45755,-1.21935 0.9938,-1.07853 -0.58582,0.17788 -0.99803,0.73672 -1.4035,1.20294 -1.37123,1.57671 -1.77659,3.63029 -1.94164,5.65703 0.10862,2.2726 0.0394,2.83012 0.54417,5.08613 0.77747,3.4751 2.37268,6.6534 4.46686,9.4907 1.1921,1.4924 1.65134,2.2013 3.0687,3.4604 2.202,1.9562 4.88181,3.2026 7.65662,4.054 0.6926,0.165 1.37835,0.3634 2.07779,0.4951 3.39212,0.6387 6.89122,0.6062 10.18282,-0.5084 0.61849,-0.2575 1.20024,-0.9055 1.85548,-0.7725 0.44472,0.09 -1.39879,1.154 -0.99313,0.9475 0.65186,-0.3319 1.19346,-0.8556 1.75125,-1.3335 1.96416,-1.6828 3.58619,-3.7122 4.96388,-5.9105 1.45555,-2.4498 1.8382,-2.9697 3.09061,-5.6044 2.25561,-4.745 3.88829,-9.77049 5.05998,-14.90065 0.76525,-3.87784 1.01943,-4.80422 1.5088,-8.74283 0.69412,-5.58652 0.84267,-11.23209 0.59699,-16.85442 -0.21885,-3.04687 -0.26441,-4.08274 -0.58754,-7.06739 -0.3692,-3.41008 -0.94984,-6.7893 -1.39375,-10.18909 -0.27581,-2.10631 -0.60326,-4.20862 -0.84543,-6.31789 0,0 3.37348,-2.107 3.37348,-2.107 z"
       inkscape:connector-curvature="0" />
    <path
       style="fill:#0000ff;fill-opacity:1"
       id="path5343"
       d="m 282.77458,987.36062 c -1.45647,-0.77896 -3.08453,-1.04949 -4.68887,-1.31668 -3.52308,-0.50959 -7.09326,-0.48575 -10.63283,-0.17372 -0.85362,0.0753 -1.7033,0.19098 -2.55493,0.28646 -3.46195,0.41086 -6.75145,1.51005 -9.66864,3.47331 -0.23767,0.15995 0.93125,-0.59936 0.78128,-0.35258 -0.42453,0.69854 -1.10521,1.19658 -1.65781,1.79486 -1.80145,2.37561 -3.00396,5.12036 -3.28345,8.12721 -0.15069,1.62122 -0.0167,2.05332 0.17383,3.62532 0.4469,1.9616 1.46777,3.6282 3.05255,4.8488 1.09971,0.8469 1.79981,1.0901 3.06176,1.6885 0.66499,0.2396 1.31955,0.5118 1.99496,0.719 1.4099,0.4325 3.32826,0.8293 4.75811,1.1131 2.62024,0.52 5.25665,0.9615 7.88436,1.4401 2.11222,0.369 4.20136,0.8584 6.28384,1.37 0.50493,0.1241 1.722,0.4135 2.27738,0.6245 0.22213,0.084 0.42698,0.2101 0.64048,0.3151 0.12046,0.1282 0.27902,0.2281 0.36138,0.3844 0.36679,0.6962 -0.32737,1.2262 -0.80577,1.56 -3.87858,2.706 -2.61232,2.0287 -5.01396,3.1918 -1.77019,0.7875 -3.60062,1.5176 -5.51032,1.8711 -1.24713,0.2309 -1.83178,0.2042 -3.10163,0.2499 -4.0743,-0.1435 -7.87651,-1.7673 -11.61052,-3.2836 -3.28531,-1.4203 -6.59819,-2.8189 -10.0956,-3.5928 -1.04918,-0.1244 -0.56404,-0.1118 -1.45392,-0.077 0,0 2.92814,-2.5346 2.92814,-2.5346 l 0,0 c 0.86393,0.085 0.39615,0.016 1.39933,0.2326 3.39497,0.9977 6.64223,2.4348 9.90049,3.8133 3.73536,1.5105 7.5666,3.0411 11.64628,3.057 1.31986,-0.077 1.78302,-0.056 3.07232,-0.3193 1.91619,-0.3916 3.74891,-1.1393 5.51131,-1.9812 2.13431,-1.1166 0.91827,-0.5565 -1.08257,1.0683 -0.87573,0.7112 0.91636,-0.5674 0.9985,-0.6756 0.0568,-0.075 0.0898,-0.1854 0.0636,-0.2761 -0.0354,-0.1227 -0.15376,-0.2023 -0.23062,-0.3034 -0.83781,-0.4887 -1.71607,-0.7711 -2.64304,-1.0516 -2.0021,-0.606 -4.03036,-1.1325 -6.08873,-1.4995 -2.63132,-0.4941 -5.27169,-0.9363 -7.90237,-1.4332 -1.53806,-0.2905 -3.35697,-0.6404 -4.87037,-1.0791 -0.69987,-0.2029 -1.38098,-0.4678 -2.07147,-0.7016 -1.35574,-0.6202 -2.01887,-0.828 -3.19985,-1.7198 -1.68378,-1.2714 -2.73152,-3.0151 -3.15114,-5.0969 -0.18388,-1.6225 -0.31753,-2.0822 -0.16043,-3.7519 0.28889,-3.0702 1.47343,-5.89903 3.27893,-8.35602 0.54803,-0.61501 1.01834,-1.31261 1.64409,-1.84503 1.87187,-1.59269 4.48339,-3.61145 6.86151,-4.77009 2.37358,-1.15642 4.93271,-1.75731 7.52996,-2.09388 4.47033,-0.49277 8.98378,-0.82299 13.46412,-0.23362 1.70604,0.23358 3.40989,0.49098 5.01191,1.16573 0,0 -3.1016,2.49836 -3.1016,2.49836 z"
       inkscape:connector-curvature="0" />
    <path
       style="fill:#0000ff;fill-opacity:1"
       id="path5345"
       d="m 223.18633,1043.2557 c -0.50071,-0.6141 -1.15956,-0.9429 -1.90374,-1.1345 -0.30065,0.01 -0.5022,-0.018 -0.79156,0.1034 -0.14103,0.059 -0.2621,0.1586 -0.39315,0.2379 1.35632,-0.9418 2.69795,-1.906 4.06896,-2.8254 0.168,-0.1127 -0.31672,0.2547 -0.4561,0.4025 -0.14593,0.1547 -0.26428,0.3342 -0.39643,0.5013 -0.70262,1.1307 -0.88406,2.1046 -0.4884,3.3748 0.61501,1.0365 1.70641,1.7168 2.86847,1.951 0.34462,0.069 0.69917,0.07 1.04875,0.1057 1.10563,-0.058 2.23805,-0.1836 3.25563,-0.668 0.30939,-0.1473 1.15784,-0.7376 0.8773,-0.5391 -4.09698,2.8978 -4.59512,3.5486 -3.07058,1.8604 0.5619,-0.745 0.79148,-1.5805 0.82157,-2.5017 0,0 4.69998,-2.9295 4.69998,-2.9295 l 0,0 c 0.0111,1.0228 -0.17044,1.9914 -0.71163,2.8752 -1.75549,2.3894 -0.59964,0.9721 -5.65674,4.4609 -1.2459,0.8595 -2.89731,0.9095 -4.33593,0.9426 -0.38277,-0.054 -0.77164,-0.075 -1.14831,-0.1635 -1.3336,-0.3124 -2.52689,-1.1248 -3.24613,-2.3092 -0.48713,-1.4092 -0.42838,-2.4863 0.24367,-3.8345 1.43369,-2.4165 4.2792,-5.0219 7.13525,-4.5923 0.77813,0.2729 1.45695,0.6878 2.05873,1.2648 0,0 -4.47961,3.4172 -4.47961,3.4172 z"
       inkscape:connector-curvature="0" />
    <path
       style="fill:#0000ff;fill-opacity:1"
       id="path5347"
       d="m 242.9607,1042.2488 c -1.48353,1.0163 -3.13297,2.1492 3.722,-2.6563 0.16425,-0.1152 -0.32363,0.2385 -0.47281,0.3732 -0.46492,0.4201 -0.81725,0.9249 -1.16815,1.4414 -0.64477,1.1247 -0.35415,1.7686 0.43354,2.671 0.7278,0.7743 1.63313,1.3859 2.67414,1.5898 1.03995,0.169 1.87482,-0.3496 2.67111,-0.9603 -7.62352,5.359 -3.9762,3.517 -3.1827,1.5089 0.17868,-0.4522 0.20978,-0.6928 0.31095,-1.1658 0,0 4.73959,-2.8341 4.73959,-2.8341 l 0,0 c -0.63765,3.7707 -2.00582,3.5601 -5.84513,6.3919 -0.93303,0.5731 -1.89373,0.8922 -2.98717,0.6048 -1.09881,-0.3707 -2.06524,-0.9895 -2.84721,-1.8682 -0.89711,-1.0277 -1.40364,-1.9245 -0.81118,-3.2916 1.66566,-2.7655 3.78172,-3.9154 6.80814,-5.7303 0,0 -4.04512,3.9256 -4.04512,3.9256 z"
       inkscape:connector-curvature="0" />
    <path
       style="fill:#0000ff;fill-opacity:1"
       id="path5349"
       d="m 267.9704,1038.874 c -0.60296,0.4567 -1.15311,0.9641 -1.51436,1.6405 -0.38429,0.8106 -0.0491,1.5765 0.2973,2.3305 0.39267,0.6853 1.02114,1.0853 1.74929,1.3091 0.77084,0.2151 1.38551,-0.3496 1.96883,-0.7943 -7.67547,5.3369 -4.40344,3.6627 -3.3342,2.0361 0.27187,-0.4136 0.36951,-0.6613 0.58454,-1.1138 0,0 4.79312,-2.7146 4.79312,-2.7146 l 0,0 c -1.31953,3.1709 -2.21312,3.1941 -6.02704,5.7004 -0.7599,0.4734 -1.45445,0.7785 -2.33068,0.4118 -0.82611,-0.3468 -1.53862,-0.8684 -1.98627,-1.6771 -0.40619,-0.8454 -0.84438,-1.7771 -0.56926,-2.7315 0.27468,-0.7898 0.73465,-1.3378 1.3477,-1.8804 0,0 5.02103,-2.5167 5.02103,-2.5167 z"
       inkscape:connector-curvature="0" />
  </g>
</svg>
