<?xml version="1.0" encoding="UTF-8" standalone="no"?>
<!-- Created with Inkscape (http://www.inkscape.org/) -->

<svg
   xmlns:dc="http://purl.org/dc/elements/1.1/"
   xmlns:cc="http://creativecommons.org/ns#"
   xmlns:rdf="http://www.w3.org/1999/02/22-rdf-syntax-ns#"
   xmlns:svg="http://www.w3.org/2000/svg"
   xmlns="http://www.w3.org/2000/svg"
   xmlns:sodipodi="http://sodipodi.sourceforge.net/DTD/sodipodi-0.dtd"
   xmlns:inkscape="http://www.inkscape.org/namespaces/inkscape"
   width="303.31"
   height="191.26772"
   id="svg2"
   version="1.1"
   inkscape:version="0.48.2 r9819"
   sodipodi:docname="01lovedemands...svg"
   inkscape:export-filename="/home/revlin/Projects/universalsoldier.ca/www/lovedemands/images/01lovedemands...png"
   inkscape:export-xdpi="91.9851"
   inkscape:export-ydpi="91.9851">
  <defs
     id="defs4">
    <inkscape:perspective
       sodipodi:type="inkscape:persp3d"
       inkscape:vp_x="0 : 526.18109 : 1"
       inkscape:vp_y="0 : 1000 : 0"
       inkscape:vp_z="744.09448 : 526.18109 : 1"
       inkscape:persp3d-origin="372.04724 : 350.78739 : 1"
       id="perspective4863" />
  </defs>
  <sodipodi:namedview
     id="base"
     pagecolor="#ffffff"
     bordercolor="#666666"
     borderopacity="1.0"
     inkscape:pageopacity="0.0"
     inkscape:pageshadow="2"
     inkscape:zoom="1.979899"
     inkscape:cx="151.75412"
     inkscape:cy="94.263849"
     inkscape:document-units="px"
     inkscape:current-layer="layer1"
     showgrid="false"
     inkscape:window-width="1024"
     inkscape:window-height="743"
     inkscape:window-x="0"
     inkscape:window-y="24"
     inkscape:window-maximized="1"
     width="303.31px"
     inkscape:showpageshadow="false" />
  <metadata
     id="metadata7">
    <rdf:RDF>
      <cc:Work
         rdf:about="">
        <dc:format>image/svg+xml</dc:format>
        <dc:type
           rdf:resource="http://purl.org/dc/dcmitype/StillImage" />
        <dc:title></dc:title>
      </cc:Work>
    </rdf:RDF>
  </metadata>
  <g
     inkscape:label="Layer 1"
     inkscape:groupmode="layer"
     id="layer1"
     transform="translate(0,-861.09447)">
    <g
       id="g5574">
      <path
         inkscape:connector-curvature="0"
         d="m 3.97141,928.12213 c 0.013047,-0.74395 0.1158666,-1.47433 0.2182746,-2.19882 0.2137992,-1.60927 0.8001576,-2.95962 1.4087963,-4.27613 1.3095277,-2.4747 2.8358618,-4.90191 4.6137901,-6.5868 0.999337,-0.94703 2.033736,-1.80393 3.050603,-2.70589 1.953801,-1.42417 4.043829,-2.29613 6.206299,-2.46717 1.181113,-0.0933 1.537937,0.005 2.677765,0.1477 0.893579,0.24273 1.858631,0.538 2.392243,1.80939 0.576499,1.37355 0.413766,3.039 0.332671,4.55547 -0.103055,0.71284 -0.183454,1.43434 -0.309221,2.13854 -0.306606,1.71678 -0.784779,3.66399 -1.224812,5.29201 -0.924044,3.41867 -2.021101,6.7179 -3.091525,10.03128 -2.147399,6.75848 -4.429469,13.41244 -6.63669,20.12447 -1.055816,3.07895 -1.966525,6.26165 -2.859872,9.45617 -0.135406,0.30178 -0.146252,0.71167 -0.248009,1.03481 -0.02785,0.0884 0.03294,-0.33388 -0.02503,-0.29224 -0.6535673,0.46941 -1.2606558,1.07832 -1.8909844,1.61748 0.5028725,-0.54874 0.9076272,-1.27088 1.3938381,-1.85186 0.1681173,-0.20088 0.3450513,-0.38372 0.5175743,-0.5756 1.61123,-1.59627 3.256275,-3.17089 5.089546,-4.08679 1.045264,-0.52221 1.345547,-0.55499 2.44997,-0.88457 2.708119,-0.62858 5.484561,-0.60377 8.189259,0.0738 0.582503,0.146 1.157412,0.35606 1.736117,0.53407 2.199113,0.86022 4.29997,2.25713 6.119226,4.36108 1.065286,1.23197 1.36838,1.81007 2.300626,3.26123 1.430367,2.45801 2.719241,5.12415 4.37235,7.25539 1.238647,1.59693 1.406075,1.61819 2.81953,2.87713 1.588234,0.99091 1.99014,1.36634 3.721393,1.90859 3.734586,1.16971 7.58878,0.83129 11.36453,0.56091 5.689958,-0.5437 11.352081,-1.59239 17.005005,-2.69932 0,0 -1.24137,1.42067 -1.24137,1.42067 l 0,0 c -5.646292,1.01606 -11.297169,2.008 -16.968389,2.63727 -3.827857,0.33087 -7.861434,0.76316 -11.658259,-0.33716 -1.772623,-0.51372 -2.196919,-0.9042 -3.822081,-1.89617 -1.441065,-1.26863 -1.612428,-1.28605 -2.870177,-2.90649 -1.656123,-2.13368 -2.943823,-4.81165 -4.392868,-7.25115 -0.903542,-1.40031 -1.243391,-2.02574 -2.269815,-3.22171 -1.792367,-2.08843 -3.863179,-3.47539 -6.040968,-4.29889 -0.576349,-0.17188 -1.148976,-0.3764 -1.729043,-0.51571 -2.727116,-0.655 -5.52297,-0.61632 -8.24119,0.106 -0.43984,0.14732 -0.883723,0.26848 -1.319518,0.44178 -0.786012,0.31258 -1.447536,0.67618 -2.187647,1.17414 -0.301476,0.20284 -1.125716,1.01091 -0.889116,0.65955 0.307788,-0.45704 0.73275,-0.68197 1.111236,-0.9894 0.208313,-0.16923 -0.400001,0.38278 -0.600002,0.57417 -0.406958,0.43583 -0.552541,0.56204 -0.911965,1.05338 -0.3048,0.41662 -0.556908,0.91924 -0.884784,1.29769 -0.710859,0.63044 -1.3930689,1.34407 -2.1325738,1.89139 -0.097297,0.072 -0.2207747,-0.24927 -0.2208164,-0.36259 -1.562e-4,-0.42166 0.3174244,-0.75328 0.3380762,-1.16092 1.0693777,-3.23292 2.052574,-6.53408 3.200129,-9.70629 2.314722,-6.69172 4.650589,-13.36793 6.772151,-20.21172 1.516424,-4.8208 3.207392,-9.83732 4.056412,-15.05875 0.110392,-0.67897 0.17756,-1.37279 0.26634,-2.05918 0.05706,-1.40845 0.187663,-2.96628 -0.33924,-4.24022 -0.487546,-1.1788 -1.384362,-1.46669 -2.206684,-1.71852 -0.399503,-0.0588 -0.797563,-0.14923 -1.198507,-0.17604 -2.626411,-0.17566 -5.186774,0.77658 -7.537536,2.5568 0.09943,-0.0962 0.393354,-0.39438 0.298314,-0.2883 -0.403341,0.45018 -0.829223,0.85279 -1.223696,1.3211 -1.2215143,1.45019 -2.2904259,3.20356 -3.2464342,5.05692 -0.5670967,1.25587 -1.1172092,2.54995 -1.3257446,4.06851 -0.097485,0.68583 -0.2015579,1.38827 -0.1910107,2.09303 0,0 -2.0864866,1.63243 -2.0864866,1.63243 z"
         id="path5243"
         style="fill:#3474fc;fill-opacity:1" />
      <path
         inkscape:connector-curvature="0"
         d="m 68.941343,948.74418 c -0.633484,-0.0358 -1.263561,-0.20182 -1.899366,-0.16281 -0.187131,0.0106 -0.373242,0.0483 -0.559861,0.0723 -1.000887,0.20049 -1.9611,0.71709 -2.853093,1.43682 -0.316263,0.25518 -0.678082,0.43094 -0.928422,0.82231 -0.18459,0.2886 0.480536,-0.33181 0.720802,-0.4977 -2.024119,2.40267 -3.652439,5.48872 -5.01798,8.79191 -0.295059,0.71376 -0.566354,1.45006 -0.849539,2.17507 -1.140889,3.38338 -2.339303,6.92746 -2.565343,10.79157 -0.03835,0.65547 -0.0111,1.31609 -0.01668,1.97415 0.07126,0.63193 0.102524,1.27761 0.213793,1.89576 0.348224,1.93457 1.088813,3.69503 2.060041,5.03125 0.993563,1.36696 1.390496,1.50828 2.59316,2.42588 0.550978,0.25579 1.089712,0.58496 1.652937,0.76736 2.818946,0.91285 5.792996,0.25257 8.496053,-1.12906 0.774568,-0.39591 1.518957,-0.91939 2.278439,-1.37907 0.720431,-0.57156 1.459189,-1.09161 2.161289,-1.71462 0.183721,-0.16301 0.321513,-0.42537 0.484832,-0.63337 0.553442,-0.70487 1.143027,-1.34646 1.66539,-2.10518 0.89887,-1.30558 1.723511,-2.87465 2.304515,-4.56091 0.266517,-0.77352 0.434765,-1.61786 0.652152,-2.42681 0.110505,-0.82339 0.268944,-1.63501 0.331525,-2.4702 0.179793,-2.3994 -0.08448,-4.7897 -0.621576,-7.04256 -0.40935,-1.71703 -0.611584,-2.09436 -1.19701,-3.62024 -0.674727,-1.49486 -1.488108,-2.88931 -2.572169,-3.69354 -0.169752,-0.12602 -0.35276,-0.20445 -0.529138,-0.30667 0,0 1.84402,-1.88893 1.84402,-1.88893 l 0,0 c 0.174222,0.12549 0.355629,0.22953 0.522669,0.37613 1.061209,0.93146 1.843478,2.39782 2.497423,3.95253 0.204884,0.57237 0.431078,1.12794 0.614645,1.71711 0.886803,2.84621 1.407904,6.04452 1.178408,9.21386 -0.06197,0.85586 -0.221692,1.6883 -0.332545,2.53245 -0.624251,2.34714 -0.636468,2.83386 -1.675751,4.89613 -2.212835,4.39099 -5.512926,6.98803 -8.683122,9.40753 -0.76628,0.4557 -1.517914,0.97434 -2.298843,1.36711 -2.770225,1.39315 -5.809469,2.0773 -8.696117,1.15989 -0.579513,-0.18416 -1.134581,-0.51761 -1.701873,-0.77638 -1.239269,-0.93126 -1.653681,-1.07809 -2.681479,-2.47119 -1.007336,-1.36536 -1.778678,-3.17207 -2.142835,-5.16361 -0.116381,-0.63647 -0.149358,-1.30214 -0.224033,-1.9532 0.0066,-0.67612 -0.02072,-1.355 0.01982,-2.02832 0.23559,-3.91697 1.453707,-7.50281 2.600641,-10.94148 0.281065,-0.72886 0.551138,-1.46799 0.843196,-2.18663 1.338299,-3.29301 2.922692,-6.38645 4.893603,-8.84129 2.169445,-2.06015 4.15958,-4.41582 6.740708,-4.92502 0.195085,-0.0215 0.389777,-0.0539 0.585247,-0.0642 0.66013,-0.0342 1.317966,0.13028 1.977971,0.0711 0,0 -1.886485,2.10455 -1.886485,2.10455 z"
         id="path5253"
         style="fill:#3474fc;fill-opacity:1" />
      <path
         inkscape:connector-curvature="0"
         d="m 82.108343,948.23582 c 0.368145,-0.81488 0.857789,-1.4502 1.385513,-2.00828 0.794502,-0.69089 1.574686,-1.42214 2.383512,-2.07267 0.179056,-0.14411 0.378769,-0.21875 0.572913,-0.30515 0.713162,-0.31739 1.45809,-0.50361 2.200867,-0.51748 0.269399,-0.005 0.538466,0.0306 0.8077,0.0458 0.649673,0.13215 1.801395,0.0343 2.321324,0.78809 0.316075,0.45813 0.275122,0.77302 0.341388,1.39898 -0.02634,0.34567 -0.03398,0.69591 -0.07902,1.03701 -0.213811,1.61877 -0.674898,3.17309 -1.11276,4.66846 -0.481015,1.64278 -0.887986,2.90266 -1.404027,4.54089 -1.186743,3.67242 -2.43913,7.29937 -3.428141,11.11335 -0.585136,2.25653 -0.656253,2.75559 -1.109463,5.0013 -0.379585,2.22576 -0.646525,4.54056 -0.31756,6.82373 0.132324,0.91838 0.252171,1.23646 0.488809,2.06269 0.453329,1.35752 1.145107,2.16407 1.994905,2.87289 0.655462,0.56249 1.344267,1.03791 2.039189,1.47406 0.434435,0.28668 0.887607,0.31202 1.341408,0.1526 0.146492,-0.0507 0.16226,-0.0353 0.28619,-0.15374 0.04006,-0.0381 0.154358,-0.16584 0.113167,-0.13056 -0.627957,0.5388 -1.240377,1.12036 -1.874507,1.64182 -0.04847,0.0399 0.07542,-0.1231 0.108953,-0.18997 0.0341,-0.068 0.06235,-0.14242 0.09351,-0.21349 0.217977,-0.70552 0.359764,-1.4611 0.516325,-2.20252 0.363457,-1.76281 0.828166,-3.45572 1.350718,-5.1196 0.614007,-1.81178 1.26546,-3.59887 2.012589,-5.29068 0.60379,-1.36721 0.972211,-2.07121 1.636587,-3.41408 2.461439,-4.74509 4.799048,-9.63483 7.153088,-14.5052 1.1829,-2.40964 2.44487,-4.73903 3.8765,-6.81308 0.69244,-1.00318 1.66567,-2.27132 2.49012,-3.05072 0.94139,-0.88998 1.91949,-1.68497 2.87924,-2.52745 1.31986,-1.00328 2.76025,-1.40124 4.22634,-1.28157 0.77159,0.0628 1.15305,0.21181 1.91259,0.42868 2.22078,0.73594 4.45356,1.35525 6.70911,1.77531 1.20845,0.22838 2.42051,0.30242 3.63634,0.32179 0,0 -1.67292,1.85858 -1.67292,1.85858 l 0,0 c -1.21131,-0.0542 -2.42033,-0.14713 -3.62433,-0.3741 -2.27494,-0.42403 -4.5336,-1.00799 -6.77762,-1.72255 -0.71596,-0.18548 -1.16369,-0.33783 -1.88832,-0.38415 -1.42212,-0.0909 -2.81329,0.33515 -4.08749,1.31831 0.17253,-0.17377 0.68537,-0.70537 0.51754,-0.52109 -0.41813,0.45919 -0.8614,0.86469 -1.26881,1.34611 -1.4772,1.74546 -2.78025,3.8354 -3.97489,6.02342 -0.44538,0.81568 -0.86153,1.66795 -1.29228,2.50192 -2.32569,4.8053 -4.611266,9.65624 -6.991095,14.39938 -0.610093,1.26712 -1.004038,2.05039 -1.564294,3.34047 -0.722009,1.6625 -1.348495,3.41618 -1.938194,5.19572 -0.295552,0.95911 -0.592336,1.91869 -0.826236,2.91873 -0.172439,0.73728 -0.160448,0.81005 -0.307603,1.52518 -0.03847,0.18699 -0.08301,0.37096 -0.12449,0.55643 -0.147829,0.7529 -0.293434,1.50356 -0.458446,2.24759 -0.488684,1.50793 -1.653096,2.31173 -2.701438,2.63768 -0.477742,0.0837 -0.947095,-0.0365 -1.38343,-0.35393 -0.689784,-0.46883 -1.381343,-0.94064 -2.034079,-1.52397 -0.896558,-0.79083 -1.566342,-1.64242 -2.0154,-3.12083 -0.217221,-0.85887 -0.341016,-1.24408 -0.458443,-2.1835 -0.298596,-2.38872 0.0058,-4.78007 0.446681,-7.07927 0.492326,-2.27837 0.578117,-2.79379 1.184748,-5.08518 1.000411,-3.77885 2.224347,-7.39839 3.363515,-11.07922 0.515762,-1.72992 0.826113,-2.73322 1.298272,-4.45204 0.396646,-1.44394 0.80057,-2.92774 0.990612,-4.47715 0.03751,-0.30618 0.04503,-0.61924 0.06758,-0.92886 -0.04018,-0.48931 0.0011,-0.76625 -0.25089,-1.11904 -0.486094,-0.67974 -1.581518,-0.61555 -2.178685,-0.73448 -0.265339,-0.005 -0.530862,-0.0332 -0.796005,-0.0169 -0.74433,0.0462 -1.496597,0.26709 -2.201548,0.63716 -0.195669,0.1028 -0.742537,0.54444 -0.574513,0.35937 0.457922,-0.50438 0.968707,-0.88469 1.453059,-1.32705 -0.506122,0.48031 -1.014019,1.0553 -1.333466,1.84264 0,0 -2.150534,1.423 -2.150534,1.423 z"
         id="path5257"
         style="fill:#3474fc;fill-opacity:1" />
      <path
         inkscape:connector-curvature="0"
         d="m 108.27146,970.20879 c 0.0729,-0.0538 0.14381,-0.11324 0.21821,-0.16132 0.47718,-0.30897 0.966,-0.5755 1.44067,-0.89514 0.62802,-0.42291 1.06732,-0.76697 1.69679,-1.23945 0.36269,-0.31507 0.74468,-0.58267 1.08806,-0.94518 0.15326,-0.16186 -0.64861,0.53293 -0.5128,0.33781 0.37741,-0.54222 0.84405,-0.91705 1.25333,-1.40174 0.73375,-0.86895 1.72736,-2.15447 2.38829,-3.15605 0.35713,-0.54121 0.68334,-1.12843 1.02503,-1.69265 1.21662,-2.26881 2.30481,-4.90065 2.45015,-7.9122 0.0172,-0.35822 -0.005,-0.71836 -0.0104,-1.07753 -0.0708,-0.67696 -0.15072,-1.89149 -0.75308,-1.96592 -0.25571,-0.0316 -0.58139,0.18132 -0.80541,0.29378 -0.70111,0.43713 -0.53947,0.30504 -1.26515,0.90423 -0.27584,0.22779 -0.63427,0.31522 -0.82123,0.70106 -0.18262,0.3769 1.03138,-0.99065 0.8069,-0.67148 -0.33466,0.47582 -0.76788,0.7565 -1.1445,1.15151 -0.42052,0.44104 -0.83104,0.90415 -1.24655,1.35624 -2.26427,2.55514 -4.4287,5.33834 -6.38278,8.44444 -0.37112,0.58989 -0.72419,1.20595 -1.08628,1.80894 -1.21575,2.12571 -2.30737,4.43447 -3.00617,7.06853 -0.34527,1.30151 -0.39194,1.76972 -0.61172,3.10175 -0.15431,1.53974 -0.16631,3.199 0.30351,4.6288 0.25038,0.76195 0.3841,0.86183 0.77674,1.44196 1.31403,1.40563 2.90291,1.91832 4.4803,2.06126 0.45705,0.0415 0.91551,0.0281 1.37326,0.0424 3.62606,-0.0491 7.17215,-1.30733 10.68563,-2.55863 3.0608,-1.13896 6.11721,-2.31593 9.21538,-3.19401 0,0 -1.63841,1.89679 -1.63841,1.89679 l 0,0 c -3.04641,0.81046 -6.05272,1.91989 -9.05781,3.02921 -3.56244,1.2514 -7.15397,2.52121 -10.82544,2.62835 -0.47145,-0.01 -0.94349,0.01 -1.41432,-0.0288 -1.649,-0.13322 -3.32001,-0.6337 -4.69312,-2.1093 -0.40987,-0.63093 -0.56164,-0.75852 -0.81779,-1.57816 -0.4724,-1.51159 -0.45453,-3.26001 -0.2801,-4.87041 0.23434,-1.38024 0.28107,-1.83972 0.64393,-3.18909 0.72179,-2.68416 1.83404,-5.04359 3.0737,-7.21752 0.36687,-0.61083 0.72491,-1.23442 1.1006,-1.83248 1.94431,-3.09521 4.086,-5.88976 6.32787,-8.46165 0.64287,-0.71667 1.60635,-1.82282 2.29771,-2.47596 0.91191,-0.86153 1.83954,-1.6833 2.76453,-2.51127 0.41423,-0.37079 1.12948,-0.97507 1.58749,-1.28807 0.20429,-0.13958 0.41729,-0.24695 0.62593,-0.37043 0.346,-0.12429 0.58237,-0.292 0.93528,-0.13413 0.65237,0.29196 0.73238,1.53728 0.79019,2.38141 -0.004,0.38357 0.0142,0.76902 -0.0113,1.15074 -0.20166,3.09986 -1.298,5.83049 -2.55352,8.18765 -0.34411,0.57489 -0.6725,1.17294 -1.03231,1.72472 -0.64796,0.99365 -1.65417,2.31122 -2.37269,3.1804 -0.39989,0.48377 -0.79662,0.97768 -1.22349,1.40362 -1.74929,1.74553 -2.51639,2.38229 -4.0581,3.71497 -1.17009,0.89292 -2.36371,1.69665 -3.54921,2.53584 0,0 1.82208,-2.23793 1.82208,-2.23793 z"
         id="path5261"
         style="fill:#3474fc;fill-opacity:1" />
      <path
         inkscape:connector-curvature="0"
         d="m 149.71096,973.08456 c 0.56091,0.1581 1.11575,0.0833 1.67523,-0.0341 0.15754,-0.0434 0.31793,-0.0754 0.47263,-0.13068 0.29611,-0.106 1.21302,-0.52838 1.43456,-0.63277 1.27948,-0.60289 2.53147,-1.26794 3.78371,-1.94151 1.29564,-0.73817 1.96044,-1.09758 3.23814,-1.90577 0.0366,-0.0233 -0.15518,0.0623 -0.12153,0.0342 0.52268,-0.44074 1.08023,-0.82582 1.59584,-1.27742 1.39178,-1.21922 1.71491,-1.67078 2.96928,-3.08179 1.86096,-2.27584 3.45485,-4.82683 4.61655,-7.65754 0.77063,-1.87771 0.81915,-2.27303 1.36856,-4.24377 0.86508,-3.72812 1.144,-7.60296 0.88386,-11.44824 -0.0533,-0.78781 -0.1529,-1.57057 -0.22935,-2.35585 -0.39463,-2.9188 -0.96365,-5.80825 -1.86769,-8.57747 -0.55894,-1.71222 -0.72513,-2.01009 -1.41689,-3.65047 -1.35233,-2.86927 -3.09316,-5.53054 -5.42064,-7.44582 -0.48033,-0.39527 -0.99981,-0.72345 -1.49972,-1.08521 -1.42372,-0.75255 -1.8708,-1.07794 -3.40669,-1.5268 -1.87358,-0.54753 -3.8964,-0.70324 -5.82143,-0.5572 -0.69694,0.0527 -1.38684,0.19239 -2.08028,0.28859 -2.23226,0.46963 -4.37148,1.35813 -6.30624,2.73665 -0.15145,0.10805 -0.21704,0.32784 -0.34831,0.46646 -3.09886,3.27229 -0.75112,0.43165 -3.58501,4.07931 -0.49503,0.82275 -1.03461,1.6123 -1.48509,2.46833 -1.87952,3.57157 -2.91112,7.64176 -3.44262,11.74845 -0.13659,1.05527 -0.20271,2.12107 -0.30406,3.18159 -0.2306,4.32758 -0.0947,8.6868 0.56214,12.96176 0.42519,2.76709 0.63115,3.31074 1.30892,5.97596 0.97741,3.37726 2.31583,6.60902 3.99823,9.59693 0.88281,1.56781 1.18286,1.93832 2.16437,3.36535 0.81575,1.05098 1.69423,2.03945 2.67214,2.8902 0.37885,0.32962 0.77992,0.64241 1.21345,0.86721 1.08363,0.0695 -1.68794,1.8736 -2.03959,1.55296 -0.27682,-0.25241 0.13467,0.0741 -0.1108,-0.11589 0,0 2.15248,-1.5623 2.15248,-1.5623 l 0,0 c 0.004,0.006 0.20262,0.19396 0.19004,0.20433 -2.68947,2.20205 -1.42958,2.13608 -2.28459,1.48535 -1.37576,-1.13073 -2.51467,-2.61207 -3.60898,-4.0784 -0.94561,-1.45973 -1.2427,-1.85494 -2.0952,-3.44531 -1.6338,-3.048 -2.93487,-6.32276 -3.89747,-9.72742 -0.65748,-2.67011 -0.86725,-3.26048 -1.28345,-6.02589 -0.64565,-4.29025 -0.79412,-8.6631 -0.58675,-13.00559 0.0967,-1.06393 0.1581,-2.1329 0.29003,-3.19182 0.5128,-4.11545 1.52746,-8.21303 3.37592,-11.81138 0.4423,-0.86106 0.97384,-1.65717 1.46076,-2.48576 1.19286,-1.56768 2.05608,-2.88379 3.53897,-4.11672 2.29393,-1.9073 5.1404,-3.88235 7.90883,-4.82863 0.7071,-0.24171 1.43788,-0.37991 2.15682,-0.56986 0.70313,-0.0938 1.40291,-0.23077 2.10937,-0.28166 1.95573,-0.14088 3.99491,0.0242 5.89557,0.59083 1.57062,0.46826 1.99687,0.78626 3.45283,1.56261 1.38781,1.00494 1.67104,1.11303 2.88588,2.37365 1.70522,1.76948 3.02532,3.94825 4.10562,6.26581 0.25355,0.60307 0.52583,1.19621 0.76064,1.80927 1.28292,3.34956 1.98845,6.93402 2.48226,10.53647 0.0791,0.78949 0.18021,1.57645 0.23733,2.36842 0.27865,3.86374 0.0205,7.75794 -0.83199,11.51157 -0.54032,1.97818 -0.59249,2.39773 -1.35754,4.28279 -1.15638,2.84929 -2.75266,5.41943 -4.59908,7.72855 -1.22942,1.41031 -1.56886,1.88839 -2.93744,3.10941 -2.53502,2.26177 -5.44471,3.89598 -8.29723,5.54763 -1.3055,0.71235 -2.61047,1.42152 -3.94234,2.06698 -0.44304,0.21463 -1.06339,0.51198 -1.54151,0.67604 -0.16531,0.0565 -0.33606,0.0899 -0.50411,0.1348 -0.59894,0.10599 -1.19225,0.13856 -1.79085,0 0,0 2.08351,-1.67084 2.08351,-1.67084 z"
         id="path5265"
         style="fill:#3474fc;fill-opacity:1" />
      <path
         inkscape:connector-curvature="0"
         d="m 166.6179,966.76688 c 1.56465,-0.36011 3.08862,-1.0319 4.53694,-1.79545 0.502,-0.26466 0.98953,-0.56427 1.48429,-0.84647 0.51724,-0.34288 1.05692,-0.64436 1.55171,-1.02863 0.0556,-0.0434 -0.25029,0.0311 -0.20061,-0.0211 2.58601,-2.70636 0.54074,-0.0146 2.98245,-2.92741 1.21779,-1.45288 1.30216,-1.75512 2.25507,-3.4019 0.25399,-0.58396 0.54239,-1.1497 0.76194,-1.75187 0.69204,-1.8979 1.01441,-4.03578 0.81989,-6.08922 -0.0326,-0.34367 -0.11015,-0.6797 -0.16521,-1.01953 -0.1855,-0.62001 -0.37669,-1.35083 -0.89865,-1.72276 -0.48145,-0.34307 -1.12136,-0.2711 -1.65156,-0.25411 -0.26744,0.0385 -0.53713,0.0605 -0.80236,0.11577 -1.14591,0.23921 -2.24759,0.72357 -3.3011,1.28409 -2.1873,1.16366 -1.8553,1.01011 -1.24232,0.74308 -3.15311,2.37729 -6.03145,5.24184 -8.43022,8.59693 -0.46888,0.6558 -0.89279,1.35253 -1.33916,2.0288 -1.25195,2.21891 -2.42077,4.62969 -2.71648,7.30185 -0.14011,1.26612 -0.0294,1.58964 0.12385,2.81277 0.1311,0.40223 0.22374,0.82399 0.39329,1.20668 0.50704,1.14439 1.39402,2.08648 2.35087,2.72288 0.85522,0.56883 1.53127,0.7715 2.46779,1.13925 2.96628,0.86677 6.02919,1.30838 9.08905,1.36448 0.77153,0.0146 1.54315,-0.0181 2.31473,-0.0275 3.36682,-0.12614 6.69261,-0.77673 9.9348,-1.81256 1.91177,-0.61071 2.6798,-0.9565 4.53948,-1.70185 0,0 -1.54162,1.3813 -1.54162,1.3813 l 0,0 c -1.86363,0.73223 -2.59945,1.05946 -4.51541,1.65569 -3.26557,1.01617 -6.61464,1.64633 -9.99703,1.80202 -0.78438,0.0146 -1.56869,0.0522 -2.35314,0.0451 -3.12187,-0.0304 -6.25496,-0.4258 -9.28701,-1.28894 -0.99929,-0.38146 -1.64499,-0.55863 -2.55343,-1.1637 -1.00033,-0.66633 -1.91015,-1.64857 -2.43067,-2.84972 -0.17415,-0.40183 -0.26902,-0.84302 -0.40353,-1.26454 -0.14756,-1.26859 -0.26224,-1.61892 -0.0998,-2.92862 0.34035,-2.74274 1.57711,-5.21096 2.86352,-7.49284 0.45333,-0.68567 0.88547,-1.39058 1.35999,-2.05699 2.37204,-3.33145 5.18941,-6.21061 8.29302,-8.60957 2.87177,-1.94729 5.80065,-4.23506 9.21164,-4.62073 0.61423,3.7e-4 1.27038,-0.0422 1.79616,0.40867 0.53465,0.45855 0.70936,1.23796 0.87881,1.93168 0.0459,0.359 0.11516,0.71507 0.13794,1.07696 0.13335,2.119 -0.2068,4.32702 -0.91894,6.28205 -0.22431,0.61577 -0.51839,1.1947 -0.7776,1.79204 -0.95896,1.67341 -1.04977,1.9884 -2.26936,3.46865 -2.2682,2.75302 -5.02959,4.57368 -7.89181,6.40094 -0.50934,0.28909 -1.01206,0.59414 -1.52801,0.86728 -1.55707,0.82414 -3.17647,1.517 -4.83615,2.01052 0,0 2.00387,-1.76349 2.00387,-1.76349 z"
         id="path5281"
         style="fill:#3474fc;fill-opacity:1" />
      <path
         inkscape:connector-curvature="0"
         d="m 188.24577,941.43121 c 0.44111,-0.003 0.87392,0.0437 1.27905,0.25192 0.59596,0.56343 0.70148,1.53213 0.83783,2.35158 0.38636,2.73706 0.3679,5.52417 0.39473,8.28912 0.008,4.00327 -0.40378,7.9845 -0.77003,11.95922 -0.22067,2.12905 -0.4645,4.26317 -0.86957,6.35843 -0.13981,0.72317 -0.34134,1.52426 -0.51501,2.24214 -0.15116,0.63356 -0.36857,1.24212 -0.53329,1.87046 -0.0202,0.0769 -0.0379,0.15455 -0.0525,0.23306 -0.004,0.0253 0.0154,0.0659 -0.005,0.0769 -0.75435,0.3982 -1.52459,0.7552 -2.28688,1.13281 0.51568,-0.96884 0.93227,-1.99872 1.3009,-3.05083 0.77699,-2.447 1.35897,-4.96792 1.94234,-7.48276 0.60077,-2.579 1.2697,-5.14144 2.20276,-7.58895 0.32983,-0.76413 0.65031,-1.56547 1.19211,-2.16775 0.7262,-0.80725 1.73186,-1.19558 2.61201,-1.76493 0.5476,-0.13203 0.83479,0.28922 1.11011,0.76373 0.3566,0.79509 0.45801,1.69134 0.59476,2.56063 0.14611,0.92406 0.20654,1.86054 0.24528,2.79738 0.0594,0.62243 -0.0455,1.27041 0.0845,1.88274 -2.46477,1.62775 -2.34529,1.91257 -2.02771,0.33097 0.0912,-0.60607 0.32738,-1.14155 0.58767,-1.67007 0.32301,-0.60074 0.61307,-1.2276 0.99302,-1.78407 0.90315,-1.05144 2.09769,-2.17439 3.42273,-2.02512 0.82485,0.20061 1.45083,0.93794 2.00733,1.62045 0.97829,1.36209 1.45129,3.05564 2.01462,4.67051 0.48481,1.39073 0.96115,2.78719 1.65884,4.05736 0.41863,0.72425 0.93986,1.35665 1.53974,1.88343 0.23213,0.17037 0.46918,0.33028 0.7034,0.49664 0,0 -2.11745,1.57145 -2.11745,1.57145 l 0,0 c -0.23815,-0.17121 -0.47088,-0.35101 -0.69634,-0.5439 -0.59241,-0.57991 -1.11943,-1.23764 -1.52323,-2.00733 -0.67871,-1.30324 -1.15491,-2.71752 -1.627,-4.13306 -0.54359,-1.58759 -1.00816,-3.249 -2.01749,-4.54399 -0.54438,-0.62562 -1.1676,-1.30706 -1.97298,-1.38173 -0.18538,0.012 -0.25006,0.004 -0.42741,0.0675 -0.0679,0.0242 -0.25867,0.13466 -0.19798,0.0921 3.52687,-2.48649 2.18236,-1.62363 1.52806,-0.93836 -0.42763,0.50092 -0.68095,1.14548 -1.01235,1.72929 -0.24806,0.5074 -0.52544,1.00414 -0.60208,1.59192 -0.0523,0.22516 -0.0979,0.45617 -0.12658,0.68721 -0.007,0.0659 0.0356,0.16391 -0.0132,0.20015 -2.25566,1.67452 -1.93479,2.42451 -2.32384,1.3993 -0.0863,-0.64598 -0.0168,-1.30245 -0.0501,-1.95298 -0.025,-0.92695 -0.072,-1.85478 -0.21871,-2.76853 -0.13045,-0.82597 -0.22469,-1.68219 -0.57683,-2.43121 -0.27521,-0.42955 -0.44439,-0.64524 -0.92021,-0.4389 3.98352,-2.7313 1.86173,-1.4365 1.32334,-0.79069 -0.44397,0.53253 -0.74212,1.18942 -1.05054,1.82864 -1.00883,2.42785 -1.71909,4.99735 -2.31203,7.59767 -0.55772,2.49343 -1.10797,4.99218 -1.80629,7.43974 -0.31802,1.03277 -0.70979,2.02198 -1.11164,3.0125 -0.78726,0.42384 -1.56969,0.85972 -2.36177,1.2714 -0.0248,0.0146 0.0406,-0.0434 0.0528,-0.071 0.0369,-0.0849 0.0615,-0.17637 0.0929,-0.2643 0.22711,-0.63816 0.46448,-1.27157 0.66457,-1.92202 0.2029,-0.73136 0.43098,-1.51897 0.59381,-2.26098 0.46025,-2.09743 0.72635,-4.24627 0.96911,-6.38814 0.41102,-3.95971 0.84244,-7.93477 0.78475,-11.93057 -0.08,-2.70716 -0.12597,-5.44188 -0.61034,-8.10246 -0.13899,-0.65469 -0.2805,-1.63968 -0.80595,-2.05053 -0.40208,-0.15863 -0.82338,-0.17456 -1.24547,-0.14465 0,0 2.05488,-1.71823 2.05488,-1.71823 z"
         id="path5291"
         style="fill:#3474fc;fill-opacity:1" />
      <path
         inkscape:connector-curvature="0"
         d="m 211.71218,952.26868 c -0.52585,-0.0575 -1.02825,0.0169 -1.53398,0.17958 -0.10438,0.0415 -0.21122,0.0759 -0.31333,0.12456 -0.10872,0.0517 -0.2148,0.1111 -0.31814,0.17573 -0.11091,0.0695 -0.43419,0.29653 -0.32379,0.22608 0.57578,-0.36744 1.13265,-0.77514 1.72013,-1.11714 0.16646,-0.0968 -0.30606,0.24604 -0.45247,0.37912 -0.17582,0.15983 -0.34238,0.33273 -0.51356,0.49909 -1.47445,1.55342 -2.62696,3.45172 -3.65782,5.40861 -0.88437,1.77043 -1.64934,3.63948 -1.96008,5.66573 -0.0602,0.39304 -0.0849,0.79224 -0.12733,1.1884 -0.0581,2.12911 0.56043,4.14834 1.61337,5.88492 0.21018,0.34666 0.45009,0.66807 0.67514,1.0021 1.15928,1.45997 2.55826,2.65191 4.16129,3.38574 0.28583,0.13068 0.58233,0.22835 0.8735,0.34251 1.03323,0.34295 2.0925,0.54891 3.16724,0.39589 0.62898,-0.0895 0.86688,-0.18806 1.48033,-0.375 -0.37832,0.35322 1.96482,-1.0546 1.46918,-0.80211 -0.42561,0.21681 -0.78113,0.74839 -1.24615,0.72506 -0.33691,-0.0167 0.5301,-0.48172 0.77486,-0.74876 0.70856,-0.77297 0.88427,-1.11584 1.48817,-2.02379 1.03997,-1.7661 1.79251,-3.73094 2.19072,-5.81758 0.28841,-1.51121 0.26951,-2.03399 0.36414,-3.58711 0.0341,-3.59932 -0.57799,-7.14108 -1.33078,-10.61671 -0.22511,-0.97755 -0.40057,-1.98095 -0.72725,-2.92415 -0.12681,-0.3661 -0.25884,-0.67716 -0.53935,-0.90092 0.0877,-0.23064 -0.42503,0.2408 -0.3259,0.17821 3.41224,-2.1549 2.57182,-1.74275 1.82302,-1.17929 -0.23713,0.19695 -0.29812,0.48743 -0.28562,0.80689 0.0198,0.37539 0.0979,0.74185 0.1286,1.11516 0.0612,0.47057 0.18604,0.93221 0.29549,1.39174 0.39185,1.84542 0.76357,3.69601 1.17508,5.5358 0.84224,3.21481 1.39885,6.53042 2.35349,9.70674 0.19312,0.64261 0.42087,1.27067 0.63131,1.90606 0.82339,2.23653 1.98237,4.27395 3.50706,5.96066 0.83477,0.92352 1.22539,1.19522 2.14684,1.96356 1.25723,0.9694 2.61442,1.75817 4.0731,2.23529 0.75588,0.24727 1.03454,0.2767 1.79876,0.42414 1.14235,0.17791 2.34549,0.21155 3.4338,-0.29677 0.14735,-0.0689 0.28443,-0.16375 0.42665,-0.24566 -3.29199,2.13048 -1.80377,1.3478 -1.23903,0.6424 0.15678,-0.19587 0.26111,-0.42538 0.36361,-0.66081 0.10633,-0.25967 0.13208,-0.52158 0.0612,-0.79393 0,0 2.21542,-1.40262 2.21542,-1.40262 l 0,0 c 0.1095,0.35871 0.11973,0.62886 0.008,0.99647 -0.0949,0.25573 -0.2052,0.54939 -0.35401,0.76992 -0.7023,1.04037 -2.25712,1.60276 -2.96974,2.19639 -0.14483,0.068 -0.28602,0.14724 -0.4345,0.20385 -1.10442,0.42064 -2.29251,0.32859 -3.42336,0.12949 -0.78691,-0.17369 -1.0156,-0.19782 -1.79114,-0.47881 -1.45024,-0.5254 -2.80206,-1.35005 -4.04403,-2.35359 -0.91883,-0.80377 -1.2933,-1.07925 -2.12884,-2.03068 -1.52366,-1.73485 -2.6867,-3.79815 -3.48653,-6.08514 -0.20802,-0.64233 -0.43236,-1.27793 -0.62404,-1.92694 -0.93687,-3.17218 -1.52174,-6.47086 -2.47572,-9.63781 -0.47292,-1.79324 -0.9137,-3.59747 -1.41001,-5.38248 -0.13378,-0.47024 -0.26277,-0.9465 -0.35591,-1.4288 -0.011,-0.37522 -0.094,-0.73835 -0.12251,-1.11276 -0.0388,-0.37816 -0.0308,-0.7427 0.17737,-1.06122 0.1249,-0.14132 0.0714,-0.0983 0.22129,-0.19901 0.75976,-0.51069 1.51153,-1.03753 2.28053,-1.52954 0.0718,-0.0459 0.24592,-0.0179 0.31192,0.0106 0.0602,0.0263 0.11176,0.0737 0.16764,0.11044 0.42961,0.53118 0.53594,1.16796 0.67853,1.86333 0.12188,0.59432 0.31564,1.71351 0.41464,2.27151 0.64062,3.53399 1.30052,7.09265 1.29044,10.722 -0.0289,0.61864 -0.0329,1.23938 -0.087,1.85575 -0.23828,2.72492 -1.02822,5.32951 -2.31791,7.62949 -0.56586,0.90393 -0.74872,1.27538 -1.42056,2.05357 -1.05575,1.22276 -2.05584,1.7307 -3.48985,2.70991 -0.24685,0.16854 -0.50402,0.31808 -0.767,0.45052 -0.24467,0.12322 -0.50199,0.21001 -0.75299,0.31497 -0.60763,0.1684 -0.89337,0.27496 -1.51686,0.33947 -1.08251,0.11204 -2.14829,-0.15542 -3.17805,-0.51633 -0.29253,-0.12349 -0.59074,-0.23069 -0.87761,-0.37073 -1.61339,-0.7877 -3.02237,-2.01719 -4.18703,-3.51542 -0.22825,-0.342 -0.47173,-0.67118 -0.68475,-1.02603 -0.85126,-1.4179 -1.48725,-3.0762 -1.66448,-4.79988 -0.042,-0.40754 -0.0254,-0.82023 -0.038,-1.23031 0.0382,-0.40426 0.0572,-0.81153 0.11461,-1.21276 0.29444,-2.05734 1.05902,-3.95652 1.95084,-5.75246 0.99938,-1.94456 2.1103,-3.83923 3.51613,-5.42995 1.19303,-1.25466 1.57712,-1.36785 3.38105,-2.58282 0.31634,-0.2131 0.6542,-0.37521 1.0098,-0.47823 0.53318,-0.1371 1.06638,-0.16762 1.61199,-0.15803 0,0 -2.05055,1.71458 -2.05055,1.71458 z"
         id="path5293"
         style="fill:#3474fc;fill-opacity:1" />
      <path
         inkscape:connector-curvature="0"
         d="m 225.92967,947.86499 c 0.78383,-0.13308 1.55576,0.0957 2.31122,0.3134 1.39704,0.49387 2.76997,1.29321 3.7098,2.62426 0.2314,0.32772 0.40877,0.70144 0.61316,1.05218 0.16084,0.40625 0.35666,0.79647 0.48259,1.21873 0.64241,2.15428 0.38566,4.52605 -0.0482,6.69538 -0.13952,0.69756 -0.32759,1.38109 -0.4914,2.07164 -1.04039,3.76369 -2.5003,7.3716 -4.29839,10.73525 -0.30241,0.5657 -0.63197,1.11156 -0.94795,1.66735 -0.66518,1.13592 -1.39794,2.21632 -2.07733,3.34049 -0.24045,0.39784 -0.46901,0.78407 -0.6272,1.23248 -0.006,0.0362 -0.002,0.0781 -0.0204,0.10923 -0.0524,0.092 0.0344,-0.21572 0.0218,-0.20674 -0.65098,0.45945 -1.2601,0.9937 -1.90322,1.46765 -0.0942,0.0695 0.1721,-0.16492 0.25418,-0.25249 0.11624,-0.12402 0.227,-0.25481 0.34049,-0.38218 1.39702,-1.70562 2.27409,-3.83579 3.08822,-5.95558 1.21192,-3.51476 2.01072,-7.19175 2.88147,-10.83113 0.65943,-2.65415 1.42593,-5.32459 2.8079,-7.61265 0.21602,-0.35765 0.46501,-0.68735 0.69751,-1.03101 0.24399,-0.27333 0.47229,-0.56651 0.73198,-0.81997 0.75073,-0.7328 3.45357,-2.61484 3.4923,-2.63912 0.6694,-0.41988 1.9305,-0.33996 2.66724,-0.31045 1.29855,0.1555 2.51761,0.68877 3.55834,1.60465 0.75731,0.6665 0.9839,1.0437 1.62676,1.87455 1.89069,2.7932 2.86997,6.1486 3.82961,9.46287 0.81994,3.04924 1.63489,6.09892 2.62641,9.08072 0.43995,1.38697 0.99337,2.7656 1.95716,3.78075 0.51903,0.5468 0.74653,0.63263 1.35331,1.00733 0.90503,0.32539 0.45172,0.21979 1.35768,0.32923 0,0 -1.83705,1.75654 -1.83705,1.75654 l 0,0 c -0.9298,-0.18007 -0.46635,-0.0406 -1.38751,-0.43184 -0.62384,-0.41414 -0.849,-0.50803 -1.38165,-1.09294 -0.96903,-1.06401 -1.51847,-2.47808 -1.94652,-3.91143 -0.9446,-3.01655 -1.71401,-6.09702 -2.5365,-9.15965 -0.94367,-3.28174 -1.92286,-6.59788 -3.86234,-9.30754 -0.27228,-0.332 -0.52898,-0.68185 -0.81682,-0.99598 -1.19786,-1.30729 -2.66591,-2.11332 -4.31682,-2.25943 -0.69081,-0.006 -1.07953,-0.0552 -1.76039,0.11124 -0.28263,0.069 -0.93114,0.60499 -0.82817,0.29432 0.16557,-0.49943 0.78995,-0.60042 1.07079,-1.02619 0.40796,-0.61853 -2.16384,1.95004 -1.58933,1.44276 -0.24451,0.34062 -0.5061,0.66593 -0.73352,1.02189 -1.4454,2.26255 -2.2593,4.93938 -2.93638,7.60846 -0.87405,3.62264 -1.67109,7.27941 -2.79448,10.81354 -0.75611,2.08352 -1.56081,4.17638 -2.84031,5.91653 -0.94087,1.14257 -0.99536,1.17678 -2.75683,2.39827 -0.11366,0.0789 -0.29864,-0.19247 -0.31801,-0.26511 -0.0155,-0.0579 0.016,-0.1203 0.024,-0.18043 0.17981,-0.52243 0.45709,-0.94237 0.75135,-1.3921 0.75404,-1.15232 1.55229,-2.26626 2.27423,-3.44656 0.33458,-0.56216 0.68503,-1.11229 1.00376,-1.68657 1.83799,-3.31142 3.28722,-6.90798 4.29687,-10.66026 0.15498,-0.67671 0.33435,-1.34658 0.46492,-2.03006 0.40011,-2.09382 0.63097,-4.40785 -0.001,-6.47758 -0.12421,-0.40663 -0.31685,-0.78114 -0.47528,-1.17169 -0.20062,-0.33296 -0.3746,-0.6894 -0.60185,-0.99888 -0.94477,-1.28669 -2.32084,-2.0182 -3.70712,-2.43603 -0.77475,-0.17811 -1.56889,-0.34955 -2.35075,-0.1183 0,0 1.8981,-1.94159 1.8981,-1.94159 z"
         id="path5307"
         style="fill:#3474fc;fill-opacity:1" />
      <path
         inkscape:connector-curvature="0"
         d="m 274.22982,917.15853 c -0.0233,1.57464 0.17106,3.14829 0.30317,4.71367 0.21966,2.51051 0.5091,5.01242 0.70256,7.52605 0.18161,2.35978 0.18433,2.77224 0.30278,5.18938 0.0973,4.11158 -0.0136,8.23664 -0.46714,12.31948 -0.30956,2.78658 -0.4909,3.60963 -0.95903,6.35416 -0.71982,3.69628 -1.71797,7.32645 -3.10798,10.76447 -0.76805,1.89967 -1.00127,2.27009 -1.8977,4.04016 -0.84826,1.58 -1.83996,3.05331 -3.0572,4.28122 -1.05301,1.06221 -3.1392,2.57826 -4.03914,3.16805 -0.37808,0.24776 -0.81183,0.36055 -1.21775,0.54085 -2.13967,0.77563 -4.40849,0.74251 -6.5971,0.25335 -0.45354,-0.10142 -0.89772,-0.25191 -1.34658,-0.37789 -1.79845,-0.64959 -3.54129,-1.57957 -4.96445,-3.0296 -0.93267,-0.9502 -1.20245,-1.44754 -1.97855,-2.57587 -1.33213,-2.10541 -2.34822,-4.45055 -2.87408,-6.99177 -0.34137,-1.64973 -0.30586,-2.05003 -0.40329,-3.71333 0.0563,-1.47782 0.255,-2.97849 1.08694,-4.17401 0.82722,-1.18874 3.19647,-2.69012 3.8714,-3.07109 0.45114,-0.25465 0.97914,-0.26051 1.46872,-0.39076 0.57906,-0.0495 1.15672,-0.13123 1.73719,-0.14894 2.81885,-0.0862 5.73052,0.34823 8.47634,1.05764 0.7114,0.18381 1.41284,0.41535 2.11927,0.62301 2.36945,0.80775 4.72641,1.83964 6.74735,3.51489 1.08616,0.90036 1.22201,1.17412 2.10946,2.27399 0.66979,1.10842 0.82525,1.24734 1.29126,2.4753 0.60343,1.58978 0.90125,3.33709 1.26077,5.01357 0.43678,2.01457 0.93089,4.00748 1.63983,5.91877 0.32791,0.72368 0.66112,1.47328 1.17044,2.05588 0.23158,0.26489 0.33804,0.31897 0.61011,0.5173 1.10226,0.49482 2.32021,0.47526 3.48513,0.47386 0,0 -1.74486,1.7176 -1.74486,1.7176 l 0,0 c -1.23588,0.0188 -2.54488,0.0964 -3.70408,-0.47865 -0.11234,-0.0886 -0.23102,-0.16746 -0.33707,-0.26582 -0.68814,-0.63849 -1.07293,-1.61342 -1.45703,-2.50012 -0.67551,-1.95042 -1.14397,-3.97805 -1.57516,-6.01604 -0.34869,-1.65055 -0.63895,-3.41264 -1.20887,-4.98366 -0.43033,-1.18623 -0.59953,-1.36679 -1.22039,-2.44569 -0.84142,-1.08053 -0.98953,-1.37389 -2.02456,-2.26653 -1.96048,-1.69067 -4.26644,-2.74393 -6.59175,-3.55744 -0.70029,-0.20739 -1.39509,-0.44127 -2.10092,-0.62218 -2.75918,-0.70721 -5.705,-1.10388 -8.53396,-0.91456 -0.58986,0.0394 -1.17446,0.15014 -1.76173,0.22517 -0.49205,0.1571 -0.99012,0.65139 -1.47623,0.47133 -0.29571,-0.10952 0.93572,-0.88393 0.638,-0.78185 -0.37609,0.12883 -0.64072,0.53408 -0.90102,0.87203 -0.8803,1.14296 -1.14053,2.6316 -1.2465,4.10081 0.0698,1.64741 0.0253,2.05155 0.34936,3.68694 0.49911,2.5191 1.5232,4.82307 2.86763,6.87986 0.76529,1.08184 1.06012,1.59572 1.97002,2.50844 1.41365,1.41806 3.13402,2.32157 4.9154,2.93875 0.44463,0.11964 0.88487,0.26344 1.33389,0.35891 2.17767,0.46299 4.42402,0.43943 6.53715,-0.36855 0.39707,-0.18666 0.77052,-0.6564 1.19117,-0.55997 0.28552,0.0653 -0.89798,0.83653 -0.63756,0.68683 0.41849,-0.24058 0.76617,-0.62022 1.12427,-0.96663 1.26095,-1.2199 2.30225,-2.69101 3.18669,-4.28456 0.93444,-1.77587 1.1801,-2.15277 1.98412,-4.06265 1.44804,-3.43967 2.49619,-7.08266 3.2484,-10.80155 0.49127,-2.81105 0.65443,-3.4826 0.96861,-6.33771 0.44561,-4.04967 0.54098,-8.14216 0.38325,-12.21783 -0.1405,-2.20868 -0.16973,-2.9596 -0.37718,-5.12319 -0.23703,-2.47195 -0.60979,-4.92156 -0.89476,-7.38609 -0.17706,-1.52688 -0.38729,-3.05085 -0.54275,-4.57985 0,0 2.16569,-1.52739 2.16569,-1.52739 z"
         id="path5341"
         style="fill:#3474fc;fill-opacity:1" />
      <path
         inkscape:connector-curvature="0"
         d="m 294.99667,951.88412 c -0.93501,-0.56468 -1.9802,-0.76078 -3.01015,-0.95446 -2.26173,-0.3694 -4.5537,-0.35213 -6.82604,-0.12602 -0.54801,0.0546 -1.09348,0.13855 -1.64021,0.20765 -2.2225,0.29784 -4.33429,1.09464 -6.20705,2.51781 -0.15258,0.11578 0.59783,-0.43448 0.50156,-0.25558 -0.27254,0.50637 -0.70953,0.86741 -1.06428,1.30109 -1.15649,1.72209 -1.92847,3.71178 -2.10791,5.89145 -0.0967,1.17524 -0.011,1.48844 0.11161,2.62801 0.28689,1.42198 0.94228,2.63011 1.95967,3.51492 0.70598,0.61391 1.15543,0.79021 1.96557,1.224 0.42691,0.17368 0.84712,0.371 1.28073,0.52119 0.90513,0.31353 2.13667,0.60117 3.0546,0.80689 1.68213,0.37695 3.37465,0.697 5.06158,1.04396 1.35601,0.26748 2.69718,0.62225 4.0341,0.99311 0.32416,0.09 1.10548,0.29974 1.46202,0.45269 0.1426,0.0609 0.27411,0.1523 0.41118,0.22842 0.0774,0.0928 0.17912,0.16536 0.232,0.27866 0.23546,0.50467 -0.21017,0.88887 -0.51728,1.13083 -2.48998,1.96159 -1.67705,1.47063 -3.21885,2.31377 -1.13643,0.57086 -2.31154,1.10011 -3.53752,1.35635 -0.80062,0.16739 -1.17596,0.14802 -1.99118,0.18117 -2.6156,-0.10408 -5.05653,-1.28113 -7.4537,-2.3803 -2.10909,-1.02958 -4.23589,-2.04344 -6.48116,-2.60445 -0.67355,-0.0901 -0.36209,-0.081 -0.93337,-0.0558 0,0 1.8798,-1.83736 1.8798,-1.83736 l 0,0 c 0.55463,0.0617 0.25431,0.012 0.89833,0.16861 2.1795,0.72326 4.26418,1.76501 6.3559,2.76429 2.39802,1.09495 4.85759,2.2045 7.47667,2.21603 0.84731,-0.0558 1.14465,-0.0406 1.97235,-0.23146 1.23014,-0.28387 2.40672,-0.82589 3.53814,-1.43619 1.37018,-0.80942 0.58952,-0.40341 -0.69498,0.77442 -0.56221,0.51555 0.58828,-0.41131 0.64102,-0.48976 0.0364,-0.0543 0.0577,-0.13435 0.0409,-0.20014 -0.0227,-0.089 -0.0986,-0.14663 -0.14804,-0.21991 -0.53787,-0.35427 -1.10169,-0.55898 -1.69679,-0.76233 -1.28529,-0.43928 -2.58741,-0.82094 -3.90883,-1.08699 -1.68926,-0.35816 -3.3843,-0.67873 -5.07315,-1.03894 -0.9874,-0.21056 -2.1551,-0.46424 -3.12667,-0.78223 -0.44931,-0.1471 -0.88656,-0.33912 -1.32985,-0.50858 -0.87034,-0.4496 -1.29606,-0.60024 -2.05422,-1.24671 -1.08094,-0.92163 -1.75358,-2.18565 -2.02297,-3.69475 -0.11804,-1.17616 -0.20385,-1.5094 -0.10298,-2.71978 0.18546,-2.2256 0.9459,-4.27624 2.105,-6.05731 0.35182,-0.44581 0.65376,-0.95152 1.05548,-1.33747 1.20169,-1.15454 2.87823,-2.61794 4.40493,-3.45786 1.52378,-0.83828 3.1667,-1.27387 4.83407,-1.51786 2.86986,-0.3572 5.76739,-0.59658 8.64367,-0.16935 1.09523,0.16931 2.18908,0.35591 3.21754,0.84505 0,0 -1.99117,1.81105 -1.99117,1.81105 z"
         id="path5343"
         style="fill:#3474fc;fill-opacity:1" />
      <path
         inkscape:connector-curvature="0"
         d="m 263.85402,990.78242 c -0.31111,-0.40915 -0.72047,-0.62821 -1.18283,-0.75588 -0.18679,0.006 -0.31203,-0.0133 -0.4918,0.0689 -0.0876,0.0393 -0.16286,0.10567 -0.24428,0.1585 0.8427,-0.62749 1.67628,-1.26992 2.52812,-1.88248 0.10438,-0.0752 -0.19679,0.1697 -0.28339,0.26817 -0.0907,0.10312 -0.16421,0.22267 -0.2463,0.33401 -0.43656,0.75334 -0.54929,1.40221 -0.30346,2.24851 0.38213,0.69059 1.06022,1.14386 1.78224,1.2999 0.21412,0.0459 0.4344,0.0467 0.65161,0.0705 0.68694,-0.0386 1.39054,-0.12243 2.02278,-0.44509 0.19222,-0.0982 0.71938,-0.49143 0.54508,-0.35918 -2.54553,1.93072 -2.85504,2.36434 -1.9078,1.23953 0.34912,-0.49636 0.49175,-1.05304 0.51045,-1.66681 0,0 2.92018,-1.95183 2.92018,-1.95183 l 0,0 c 0.006,0.68146 -0.10586,1.32679 -0.44215,1.91566 -1.09072,1.59198 -0.37256,0.64768 -3.51463,2.97216 -0.7741,0.57266 -1.80016,0.60597 -2.694,0.62802 -0.23781,-0.0359 -0.47943,-0.05 -0.71346,-0.10884 -0.82859,-0.20814 -1.57,-0.74941 -2.01687,-1.53854 -0.30267,-0.9389 -0.26617,-1.65655 0.15138,-2.55481 0.89079,-1.61004 2.65875,-3.34594 4.43327,-3.05972 0.48347,0.18183 0.90523,0.45827 1.27912,0.84271 0,0 -2.78326,2.27677 -2.78326,2.27677 z"
         id="path5345"
         style="fill:#3474fc;fill-opacity:1" />
      <path
         inkscape:connector-curvature="0"
         d="m 276.14019,990.11156 c -0.92174,0.67712 -1.94656,1.43195 2.31255,-1.76981 0.10194,-0.0769 -0.20108,0.1589 -0.29378,0.24866 -0.28885,0.27988 -0.50776,0.61622 -0.72578,0.96036 -0.4006,0.74935 -0.22003,1.17835 0.26937,1.7796 0.45218,0.51588 1.01469,0.92337 1.66149,1.05924 0.64612,0.11257 1.16486,-0.23293 1.65961,-0.63983 -4.73663,3.57053 -2.47049,2.34326 -1.97747,1.00534 0.11102,-0.3013 0.13033,-0.46159 0.1932,-0.77676 0,0 2.94479,-1.88826 2.94479,-1.88826 l 0,0 c -0.39618,2.5123 -1.24625,2.37198 -3.63169,4.25874 -0.5797,0.38183 -1.1766,0.59444 -1.85598,0.40296 -0.68271,-0.24698 -1.28317,-0.65929 -1.76902,-1.24473 -0.55739,-0.68473 -0.87211,-1.28223 -0.50399,-2.19309 1.0349,-1.84257 2.34964,-2.60872 4.23001,-3.81793 0,0 -2.51331,2.61551 -2.51331,2.61551 z"
         id="path5347"
         style="fill:#3474fc;fill-opacity:1" />
      <path
         inkscape:connector-curvature="0"
         d="m 291.67918,987.86303 c -0.37465,0.30429 -0.71646,0.64235 -0.94092,1.09302 -0.23875,0.54007 -0.0305,1.05037 0.18473,1.55274 0.24397,0.4566 0.63445,0.72311 1.08687,0.87222 0.47892,0.14331 0.86083,-0.23294 1.22326,-0.52923 -4.76891,3.55582 -2.73593,2.44035 -2.0716,1.3566 0.16892,-0.27557 0.22959,-0.44062 0.36319,-0.7421 0,0 2.97805,-1.80864 2.97805,-1.80864 l 0,0 c -0.81984,2.11267 -1.37505,2.12812 -3.74471,3.79799 -0.47214,0.31542 -0.90367,0.51868 -1.44808,0.27437 -0.51329,-0.23106 -0.95599,-0.57859 -1.23412,-1.11739 -0.25237,-0.56327 -0.52462,-1.18405 -0.35369,-1.81992 0.17068,-0.52622 0.45644,-0.89135 0.83735,-1.25286 0,0 3.11967,-1.6768 3.11967,-1.6768 z"
         id="path5349"
         style="fill:#3474fc;fill-opacity:1" />
    </g>
  </g>
</svg>
